<svg width="129" height="24" viewBox="0 0 129 24" fill="none" xmlns="http://www.w3.org/2000/svg">
<g clip-path="url(#clip0_81_996)">
<path fill-rule="evenodd" clip-rule="evenodd" d="M43.5581 21C42.2081 21 41.1748 20.6167 40.4581 19.85C39.7414 19.0833 39.3831 18 39.3831 16.6V7.4C39.3831 6 39.7414 4.91667 40.4581 4.15C41.1748 3.38333 42.2081 3 43.5581 3C44.9081 3 45.9414 3.38333 46.6581 4.15C47.3747 4.91667 47.7331 6 47.7331 7.4V16.6C47.7331 18 47.3747 19.0833 46.6581 19.85C45.9414 20.6167 44.9081 21 43.5581 21ZM43.5581 18.5C44.5081 18.5 44.9831 17.925 44.9831 16.775V7.225C44.9831 6.075 44.5081 5.5 43.5581 5.5C42.6081 5.5 42.1331 6.075 42.1331 7.225V16.775C42.1331 17.925 42.6081 18.5 43.5581 18.5Z" fill="#524D48"/>
<path d="M31.087 3.25001H33.837V18.25H38.362V20.75H31.087V3.25001Z" fill="#524D48"/>
<path d="M50.4428 19.875C51.1429 20.625 52.1595 21 53.4928 21C54.8262 21 55.8428 20.625 56.5428 19.875C57.2429 19.1084 57.5928 18.0167 57.5928 16.6V10.875H53.6178V13.375H54.9928V16.8C54.9928 17.9334 54.5178 18.5 53.5678 18.5C52.6179 18.5 52.1428 17.9334 52.1428 16.8V7.225C52.1428 6.075 52.6179 5.5 53.5678 5.5C54.5178 5.5 54.9928 6.075 54.9928 7.225V8.9H57.5928V7.4C57.5928 5.98334 57.2429 4.9 56.5428 4.15C55.8428 3.38333 54.8262 3 53.4928 3C52.1595 3 51.1429 3.38333 50.4428 4.15C49.7428 4.9 49.3928 5.98334 49.3928 7.4V16.6C49.3928 18.0167 49.7428 19.1084 50.4428 19.875Z" fill="#524D48"/>
<path fill-rule="evenodd" clip-rule="evenodd" d="M63.3334 21C61.9834 21 60.9501 20.6167 60.2335 19.85C59.5168 19.0833 59.1584 18 59.1584 16.6V7.4C59.1584 6 59.5168 4.91667 60.2335 4.15C60.9501 3.38333 61.9834 3 63.3334 3C64.6835 3 65.7168 3.38333 66.4334 4.15C67.1502 4.91667 67.5085 6 67.5085 7.4V16.6C67.5085 18 67.1502 19.0833 66.4334 19.85C65.7168 20.6167 64.6835 21 63.3334 21ZM63.3334 18.5C64.2834 18.5 64.7584 17.925 64.7584 16.775V7.225C64.7584 6.075 64.2834 5.5 63.3334 5.5C62.3835 5.5 61.9085 6.075 61.9085 7.225V16.775C61.9085 17.925 62.3835 18.5 63.3334 18.5Z" fill="#524D48"/>
<path d="M72.1235 3.25001H69.3735V20.75H72.1235V3.25001Z" fill="#524D48"/>
<path fill-rule="evenodd" clip-rule="evenodd" d="M74.1829 3.25001H78.2329C79.5994 3.25001 80.6244 3.61667 81.308 4.35001C81.9916 5.08334 82.3331 6.15834 82.3331 7.575V9.29999C82.3331 10.7167 81.9916 11.7917 81.308 12.525C80.6244 13.2583 79.5994 13.625 78.2329 13.625H76.9331V20.75H74.1829V3.25001ZM78.2329 11.125C78.6831 11.125 79.0163 11 79.2331 10.75C79.4665 10.5 79.5828 10.075 79.5828 9.47499V7.40001C79.5828 6.8 79.4665 6.375 79.2331 6.125C79.0163 5.875 78.6831 5.75001 78.2329 5.75001H76.9331V11.125H78.2329Z" fill="#524D48"/>
<path d="M84.4741 19.875C85.1577 20.625 86.1662 21 87.499 21C88.849 21 89.874 20.6167 90.5741 19.85C91.2908 19.0833 91.6494 17.9833 91.6494 16.55C91.6494 15.45 91.4326 14.4917 90.9996 13.675C90.5659 12.8584 89.7742 11.95 88.6245 10.95C87.7241 10.1666 87.099 9.49997 86.7493 8.95C86.4161 8.4 86.2495 7.80833 86.2495 7.175C86.2495 6.05833 86.7073 5.5 87.6243 5.5C88.0745 5.5 88.4159 5.64167 88.6493 5.925C88.8827 6.19166 88.999 6.625 88.999 7.225V8.125H91.5992V7.4C91.5992 5.98334 91.2577 4.9 90.5741 4.15C89.9077 3.38333 88.9157 3 87.5995 3C86.266 3 85.2492 3.38333 84.5491 4.15C83.849 4.9 83.4993 5.96667 83.4993 7.35C83.4993 8.36667 83.7244 9.28333 84.1739 10.1C84.6241 10.9 85.4158 11.8 86.549 12.8C87.4494 13.5833 88.0662 14.2583 88.3994 14.825C88.7326 15.375 88.8992 16.0167 88.8992 16.75C88.8992 17.3667 88.7739 17.8167 88.524 18.1C88.2907 18.3667 87.9409 18.5 87.4742 18.5C86.5242 18.5 86.0492 17.9334 86.0492 16.8V15.6H83.449V16.6C83.449 18.0167 83.7911 19.1084 84.4741 19.875Z" fill="#524D48"/>
<path d="M97.2263 21C95.8928 21 94.8761 20.625 94.1759 19.875C93.4758 19.1084 93.1261 18.0167 93.1261 16.6V3.25001H95.8763V16.8C95.8763 17.4 95.9927 17.8333 96.226 18.1C96.4759 18.3667 96.8263 18.5 97.2759 18.5C97.7261 18.5 98.0676 18.3667 98.3009 18.1C98.5508 17.8333 98.6761 17.4 98.6761 16.8V3.25001H101.326V16.6C101.326 18.0167 100.976 19.1084 100.276 19.875C99.5759 20.625 98.5591 21 97.2263 21Z" fill="#524D48"/>
<path d="M107.21 3.25001H103.284V20.75H105.685V7.50001H105.734L107.734 20.75H110.034L112.035 7.50001H112.084V20.75H114.685V3.25001H110.76L109.009 15.775H108.96L107.21 3.25001Z" fill="#524D48"/>
<path fill-rule="evenodd" clip-rule="evenodd" d="M11.4892 9.00379C6.27541 9.00379 1.98163 5.06456 1.42178 0H8.66565C9.11293 1.12109 10.2085 1.91329 11.4892 1.91329C12.7698 1.91329 13.8655 1.12109 14.3127 0H21.5566C20.9967 5.06456 16.7029 9.00379 11.4892 9.00379ZM0.234497 20.2585C3.96399 20.2585 6.98731 17.2351 6.98731 13.5057C6.98731 9.7762 3.96399 6.75286 0.234497 6.75286V11.4798C1.35333 11.4798 2.26033 12.3868 2.26033 13.5057C2.26033 14.6245 1.35333 15.5315 0.234497 15.5315V20.2585ZM22.7439 9.00377C21.5899 8.63822 20.3611 8.44099 19.0861 8.44099C12.4041 8.44099 6.98733 13.8579 6.98733 20.5398C6.98733 21.2105 7.0419 21.8684 7.14683 22.5094H14.6642C14.3959 21.9077 14.2467 21.2412 14.2467 20.5398C14.2467 17.867 16.4133 15.7003 19.0861 15.7003C20.5469 15.7003 21.8565 16.3475 22.7439 17.3709V9.00377Z" fill="#524D48"/>
</g>
<defs>
<clipPath id="clip0_81_996">
<rect width="128" height="24" fill="white" transform="translate(0.234497)"/>
</clipPath>
</defs>
</svg>
