<svg width="132" height="24" viewBox="0 0 132 24" fill="none" xmlns="http://www.w3.org/2000/svg">
<g clip-path="url(#clip0_188_2858)">
<path d="M11.3248 21.6C16.9275 21.6 21.4691 17.0335 21.4691 11.4V4.26001C21.4691 3.44845 21.1485 2.67013 20.5778 2.09627C20.007 1.5224 19.233 1.20001 18.4258 1.20001L11.8321 1.20001V5.67475C11.8321 6.69577 11.8939 7.75351 12.4265 8.62255C12.8078 9.24537 13.3178 9.77844 13.922 10.1856C14.5262 10.5928 15.2105 10.8645 15.9283 10.9823L16.1226 11.0139C16.2027 11.0415 16.2722 11.0935 16.3214 11.1627C16.3706 11.2319 16.3971 11.3149 16.3971 11.4C16.3971 11.4851 16.3706 11.5681 16.3214 11.6373C16.2722 11.7065 16.2027 11.7586 16.1226 11.7861L15.9283 11.8177C14.8795 11.99 13.911 12.4891 13.1595 13.2447C12.408 14.0003 11.9116 14.9742 11.7403 16.0288L11.7088 16.2241C11.6814 16.3046 11.6297 16.3745 11.5608 16.424C11.492 16.4735 11.4095 16.5001 11.3248 16.5001C11.2402 16.5001 11.1577 16.4735 11.0888 16.424C11.02 16.3745 10.9683 16.3046 10.9409 16.2241L10.9094 16.0288C10.7922 15.307 10.522 14.619 10.117 14.0115C9.71209 13.404 9.18195 12.8911 8.56256 12.5077C7.69827 11.9722 6.64631 11.91 5.63087 11.91H1.19275C1.45802 17.3063 5.89259 21.6 11.3248 21.6Z" fill="#524D48"/>
<path d="M0 11.4H5.23249C6.42641 11.4 7.66327 11.3268 8.67948 10.6968C9.47384 10.2044 10.1425 9.53161 10.632 8.7324C11.2582 7.71 11.3309 6.4656 11.3309 5.2644V0H3.57818C2.62919 0 1.71906 0.379285 1.04803 1.05442C0.376986 1.72955 0 2.64522 0 3.6L0 11.4ZM27.7041 1.2C27.7041 1.51826 27.5784 1.82348 27.3547 2.04853C27.131 2.27357 26.8277 2.4 26.5113 2.4C26.195 2.4 25.8916 2.27357 25.668 2.04853C25.4443 1.82348 25.3186 1.51826 25.3186 1.2C25.3186 0.88174 25.4443 0.576516 25.668 0.351472C25.8916 0.126428 26.195 0 26.5113 0C26.8277 0 27.131 0.126428 27.3547 0.351472C27.5784 0.576516 27.7041 0.88174 27.7041 1.2ZM126.257 7.2624C129.591 7.2624 131.2 9.6054 131.2 12.3192V17.4162H127.711V12.924C127.711 11.694 127.265 10.6788 125.985 10.6788C124.706 10.6788 124.28 11.694 124.28 12.924V17.4156H120.79V12.924C120.79 11.694 120.364 10.6788 119.084 10.6788C117.805 10.6788 117.359 11.694 117.359 12.924V17.4156H113.87V12.3186C113.87 9.6048 115.479 7.2618 118.813 7.2618C120.635 7.2618 121.953 7.9842 122.555 9.1752C123.194 7.9842 124.59 7.2612 126.257 7.2612V7.2624ZM107.6 14.292C108.724 14.292 109.209 13.257 109.209 12.0264V7.6524H112.698V12.456C112.698 15.3264 111.031 17.709 107.6 17.709C104.169 17.709 102.502 15.327 102.502 12.456V7.6524H105.991V12.0264C105.991 13.2564 106.475 14.292 107.6 14.292ZM97.3713 17.7282C95.1808 17.7282 93.7656 16.9668 92.9319 15.483L95.4522 14.0574C95.801 14.682 96.324 14.9946 97.1965 14.9946C97.914 14.9946 98.2432 14.7408 98.2432 14.4282C98.2432 13.2372 93.1258 14.448 93.1258 10.6602C93.1258 8.8242 94.6763 7.3404 97.3128 7.3404C99.6196 7.3404 100.88 8.4726 101.442 9.5664L98.9218 11.0112C98.7089 10.4256 98.0493 10.074 97.3904 10.074C96.8864 10.074 96.6151 10.2888 96.6151 10.5816C96.6151 11.7924 101.732 10.6794 101.732 14.3502C101.732 16.4004 99.7358 17.7282 97.3713 17.7282ZM85.1804 21.9072H81.6911V12.5148C81.6911 9.5268 83.9203 7.3596 87.022 7.3596C90.0461 7.3596 92.3529 9.6834 92.3529 12.5148C92.3529 15.639 90.2978 17.709 87.2158 17.709C86.4984 17.709 85.7815 17.4942 85.1804 17.1618V21.9072ZM87.022 14.409C88.127 14.409 88.8635 13.5498 88.8635 12.534C88.8635 11.4996 88.127 10.6596 87.022 10.6596C85.9169 10.6596 85.1804 11.4996 85.1804 12.5346C85.1804 13.5498 85.9169 14.409 87.022 14.409ZM78.1958 6.618C77.052 6.618 76.1026 5.661 76.1026 4.509C76.1026 3.357 77.052 2.4 78.1958 2.4C79.3396 2.4 80.2896 3.357 80.2896 4.509C80.2896 5.661 79.3396 6.618 78.1958 6.618ZM76.4514 7.6524H79.9408V17.4162H76.4514V7.6524ZM69.7567 17.709C66.7325 17.709 64.4258 15.366 64.4258 12.5148C64.4258 9.6834 66.7325 7.3404 69.7567 7.3404C72.7808 7.3404 75.0875 9.6834 75.0875 12.5148C75.0875 15.366 72.7808 17.709 69.7567 17.709ZM69.7567 14.409C70.8617 14.409 71.5982 13.5498 71.5982 12.534C71.5982 11.4996 70.8617 10.6404 69.7567 10.6404C68.6516 10.6404 67.9151 11.4996 67.9151 12.534C67.9151 13.5498 68.6516 14.409 69.7567 14.409ZM57.8371 22.2C55.4338 22.2 53.6888 21.126 52.7973 19.212L55.6855 17.6502C55.9956 18.3144 56.577 18.9978 57.7787 18.9978C59.0394 18.9978 59.8725 18.1968 59.9697 16.791C59.5046 17.2014 58.7675 17.5134 57.663 17.5134C54.968 17.5134 52.7967 15.4242 52.7967 12.495C52.7967 9.6642 55.104 7.3596 58.1282 7.3596C61.2298 7.3596 63.4591 9.5274 63.4591 12.5148V16.3812C63.4591 19.896 61.0354 22.2 57.8371 22.2ZM58.0697 14.214C59.1163 14.214 59.9113 13.491 59.9113 12.417C59.9113 11.3628 59.1169 10.6596 58.0697 10.6596C57.0422 10.6596 56.2281 11.3628 56.2281 12.4176C56.2281 13.4916 57.0422 14.2134 58.0697 14.2134V14.214ZM46.8784 17.709C43.8542 17.709 41.5469 15.366 41.5469 12.5148C41.5469 9.6834 43.8542 7.3404 46.8784 7.3404C49.9019 7.3404 52.2092 9.6834 52.2092 12.5148C52.2092 15.366 49.9025 17.709 46.8784 17.709ZM46.8784 14.409C47.9834 14.409 48.7199 13.5498 48.7199 12.534C48.7199 11.4996 47.9834 10.6404 46.8784 10.6404C45.7733 10.6404 45.0368 11.4996 45.0368 12.534C45.0368 13.5498 45.7733 14.409 46.8784 14.409ZM35.1932 4.236V14.0964H40.9702V17.4162H34.7084C32.4988 17.4162 31.6073 16.2444 31.6073 14.3892V4.236H35.1932Z" fill="#524D48"/>
</g>
<defs>
<clipPath id="clip0_188_2858">
<rect width="131.2" height="24" fill="white"/>
</clipPath>
</defs>
</svg>
