<svg width="60" height="60" viewBox="0 0 60 60" fill="none" xmlns="http://www.w3.org/2000/svg">
<path fill-rule="evenodd" clip-rule="evenodd" d="M13.8946 26.1491L17.7921 19.3985C18.2772 18.5583 18.434 18.1407 19.595 18.1407H26.4169C26.4462 18.1407 26.4714 18.1517 26.4913 18.1731C26.5112 18.1945 26.5204 18.2204 26.5183 18.2496C26.5123 18.3331 26.5092 18.4175 26.5092 18.5025C26.5092 20.4304 28.0721 21.9933 30 21.9933C31.9279 21.9933 33.4908 20.4304 33.4908 18.5025C33.4908 18.4175 33.4877 18.3331 33.4817 18.2496C33.4796 18.2204 33.4888 18.1945 33.5087 18.1731C33.5286 18.1517 33.5538 18.1407 33.5831 18.1407H39.5162C40.7307 18.1407 41.4408 18.0697 42.1179 19.2426L46.1054 26.1491C46.5115 26.8525 46.2683 27.7603 45.5649 28.1664C44.8615 28.5725 43.9537 28.3293 43.5476 27.6259L40.3509 22.0892C40.3304 22.0535 40.2929 22.0345 40.252 22.0389C40.2112 22.0433 40.1786 22.0698 40.166 22.109L39.3411 24.6804C39.3331 24.7054 39.3345 24.7297 39.3455 24.7536L42.7271 32.165C42.777 32.2742 42.7346 32.394 42.6612 32.4891C42.5878 32.5842 42.4844 32.635 42.3643 32.635H39.863C39.807 32.635 39.7613 32.6806 39.7613 32.7367V38.8056C39.7613 38.8356 39.7498 38.8614 39.7275 38.8814C39.7052 38.9014 39.6783 38.91 39.6485 38.9067C38.8553 38.8191 38.0629 38.7878 37.2773 38.8329C37.2483 38.8346 37.2227 38.8252 37.2016 38.8053C37.1805 38.7854 37.1698 38.7604 37.1698 38.7314V32.5054C37.1698 32.0561 36.8055 31.6919 36.3562 31.6919C35.9069 31.6919 35.5426 32.0561 35.5426 32.5054V38.9869C35.5426 39.0349 35.5103 39.0753 35.4636 39.086C34.7544 39.2479 34.0885 39.4794 33.4622 39.7729C33.4298 39.7881 33.3947 39.7859 33.3645 39.7666C33.3342 39.7474 33.3173 39.7166 33.3174 39.6808C33.32 36.9318 33.3236 34.1828 33.3267 31.4338C33.3286 29.693 34.013 28.203 35.3324 27.0676L36.6159 25.9631C37.38 25.3056 37.4676 24.1335 36.8101 23.3695C36.1526 22.6056 34.9806 22.5178 34.2166 23.1753C33.9296 23.4224 33.6501 23.6837 33.3704 23.9393C32.9832 24.293 32.595 24.6458 32.2008 24.9919C31.752 25.3859 31.2892 25.7829 30.8082 26.1371C30.6777 26.2332 30.1939 26.5779 30.0152 26.6067C30.0039 26.6085 29.9939 26.6085 29.9826 26.6066C29.8055 26.5775 29.3222 26.2331 29.1918 26.1371C28.7108 25.7829 28.248 25.3859 27.7992 24.9919C27.405 24.6458 27.0168 24.293 26.6296 23.9393C26.3498 23.6837 26.0704 23.4224 25.7834 23.1753C25.0194 22.5178 23.8474 22.6056 23.1899 23.3695C22.5324 24.1335 22.6201 25.3056 23.3841 25.9631L24.6676 27.0676C25.987 28.203 26.6714 29.693 26.6733 31.4338C26.6764 34.1828 26.68 36.9318 26.6826 39.6808C26.6827 39.7166 26.6658 39.7474 26.6356 39.7666C26.6053 39.7859 26.5703 39.7881 26.5378 39.7729C25.9115 39.4794 25.2455 39.2479 24.5364 39.086C24.4896 39.0753 24.4574 39.0348 24.4574 38.9869V32.5054C24.4574 32.0561 24.0931 31.6919 23.6438 31.6919C23.1945 31.6919 22.8302 32.0561 22.8302 32.5054V38.7314C22.8302 38.7604 22.8195 38.7854 22.7983 38.8053C22.7772 38.8253 22.7517 38.8346 22.7227 38.8329C21.7872 38.7792 20.842 38.8342 19.8975 38.963C19.8674 38.9671 19.8398 38.9588 19.8169 38.9388C19.794 38.9188 19.7821 38.8926 19.7821 38.8622V22.3361C19.7821 22.2907 19.7535 22.2521 19.71 22.2389C19.6665 22.2256 19.6213 22.2417 19.596 22.2794L19.1944 22.8771C19.1931 22.8791 19.192 22.8809 19.1907 22.883L16.4525 27.6259C16.0463 28.3293 15.1386 28.5725 14.4352 28.1664C13.7318 27.7603 13.4885 26.8525 13.8946 26.1491ZM34.5858 26.2L35.8693 25.0954C36.152 24.8521 36.1859 24.3989 35.9426 24.1162C35.6992 23.8335 35.2461 23.7995 34.9633 24.0429C34.6839 24.2834 34.4146 24.5358 34.1424 24.7844C33.7496 25.1432 33.3558 25.501 32.956 25.8521C32.4797 26.2702 31.9975 26.6828 31.4868 27.0589C31.0893 27.3516 30.553 27.7269 30.0558 27.7517L30.0037 27.7543C30.0001 27.7544 29.9971 27.7544 29.9935 27.7543L29.9414 27.7516C29.4454 27.7266 28.9098 27.3509 28.5132 27.0589C28.0025 26.6828 27.5203 26.2702 27.044 25.8521C26.6442 25.501 26.2504 25.1432 25.8576 24.7844C25.5854 24.5358 25.3161 24.2834 25.0366 24.0429C24.7539 23.7995 24.3008 23.8335 24.0574 24.1162C23.8141 24.3989 23.848 24.8521 24.1307 25.0954L25.4142 26.2C26.9859 27.5525 27.8156 29.359 27.818 31.4325C27.8213 34.4366 27.8253 37.4408 27.828 40.4449C27.8281 40.4798 27.8441 40.5098 27.8731 40.5293C28.6177 41.0289 29.2992 41.6253 29.9254 42.3019C29.9453 42.3235 29.9706 42.3345 30 42.3345C30.0294 42.3345 30.0547 42.3235 30.0746 42.3019C30.7008 41.6253 31.3823 41.0289 32.1269 40.5293C32.1559 40.5098 32.1719 40.4798 32.172 40.4449C32.1747 37.4408 32.1787 34.4366 32.182 31.4325C32.1844 29.359 33.0141 27.5525 34.5858 26.2ZM30 20.8278C31.2842 20.8278 32.3253 19.7868 32.3253 18.5025C32.3253 17.2184 31.2842 16.1773 30 16.1773C28.7158 16.1773 27.6747 17.2184 27.6747 18.5025C27.6747 19.7868 28.7158 20.8278 30 20.8278ZM24.0258 14.5237C25.6941 14.5237 27.0462 13.1716 27.0462 11.5032C27.0462 9.83496 25.6941 8.48279 24.0258 8.48279C22.3575 8.48279 21.0053 9.83496 21.0053 11.5032C21.0053 13.1716 22.3574 14.5237 24.0258 14.5237ZM35.0854 14.5237C36.7538 14.5237 38.1059 13.1716 38.1059 11.5032C38.1059 9.83496 36.7537 8.48279 35.0854 8.48279C33.4171 8.48279 32.065 9.83496 32.065 11.5032C32.065 13.1716 33.4171 14.5237 35.0854 14.5237ZM53.7924 43.8647C53.7698 43.8321 53.7355 43.813 53.6939 43.8097C45.5018 43.1465 36.4865 35.67 30.0823 44.5427C30.0627 44.5701 30.0337 44.5856 30 44.5856C29.9661 44.5856 29.9374 44.5702 29.9177 44.5427C23.5135 35.67 14.4982 43.1465 6.30612 43.8097C6.26449 43.813 6.23022 43.8321 6.20761 43.8647C6.18505 43.8972 6.18046 43.934 6.19433 43.9704L7.71892 47.9662C7.73918 48.0193 7.79409 48.0519 7.85458 48.0465C15.1952 47.3903 22.5027 42.9303 29.9232 51.4816C29.9431 51.5047 29.9694 51.5172 30 51.5172C30.0307 51.5172 30.0568 51.5048 30.0768 51.4816C37.4972 42.9303 44.8048 47.3903 52.1454 48.0465C52.2059 48.0519 52.2608 48.0193 52.2811 47.9662L53.8057 43.9704C53.8195 43.934 53.815 43.8972 53.7924 43.8647Z" fill="#D99E4B"/>
</svg>
