<svg width="60" height="60" viewBox="0 0 60 60" fill="none" xmlns="http://www.w3.org/2000/svg">
<path d="M29.6313 30.7445V31.4216H34.8214V30.7445C34.8214 30.7194 34.8164 30.6946 34.8067 30.6714C34.797 30.6483 34.7828 30.6273 34.7648 30.6098C34.7469 30.5922 34.7257 30.5784 34.7024 30.5692C34.6791 30.5599 34.6541 30.5554 34.629 30.5559H29.8198C29.7698 30.5559 29.7219 30.5758 29.6865 30.6112C29.6511 30.6465 29.6313 30.6945 29.6313 30.7445Z" fill="#D99E4B"/>
<path d="M24.0256 25.2158C24.115 25.7919 24.4075 26.3172 24.8502 26.6966C25.293 27.0759 25.8568 27.2845 26.4399 27.2845C27.0229 27.2845 27.5868 27.0759 28.0295 26.6966C28.4723 26.3172 28.7648 25.7919 28.8541 25.2158H24.0256Z" fill="#D99E4B"/>
<path d="M24.672 24.4463H28.2116L26.4418 20.3373L24.672 24.4463Z" fill="#D99E4B"/>
<path d="M22.6137 44.8067H43.4165C43.5075 43.9227 43.814 43.0746 44.3091 42.3367H18.8586C18.7663 42.3367 18.6739 42.3367 18.5816 42.3367L18.4085 42.3751H18.3238L18.0814 42.4367C17.7054 42.5482 17.356 42.7349 17.0544 42.9856C16.7529 43.2362 16.5054 43.5456 16.327 43.8949C16.327 43.8949 16.327 43.8949 16.327 43.9179C16.2911 43.9866 16.259 44.0573 16.2308 44.1296L16.2116 44.1757L16.1423 44.3796C16.1441 44.4001 16.1441 44.4207 16.1423 44.4412C16.1423 44.5066 16.1077 44.5758 16.0962 44.6451C16.094 44.663 16.094 44.6811 16.0962 44.699C16.08 44.7724 16.0697 44.847 16.0654 44.9221C16.0654 45.0068 16.0654 45.0914 16.0654 45.176C16.0647 45.3217 16.0763 45.4671 16.1 45.6108L16.1231 45.7493C16.2064 46.1531 16.3761 46.5341 16.6205 46.8661C16.8649 47.1982 17.1782 47.4734 17.539 47.673H17.562L17.7929 47.7846H17.8121C17.9369 47.8368 18.0655 47.8793 18.1969 47.9115H18.2238C18.3161 47.9346 18.4085 47.95 18.5008 47.9692C18.6462 47.9885 18.7927 47.9988 18.9394 48H44.3091C43.8214 47.2754 43.5153 46.444 43.4165 45.5762H22.6137C22.5116 45.5762 22.4138 45.5356 22.3416 45.4635C22.2695 45.3913 22.2289 45.2935 22.2289 45.1914C22.2289 45.0894 22.2695 44.9915 22.3416 44.9194C22.4138 44.8472 22.5116 44.8067 22.6137 44.8067Z" fill="#D99E4B"/>
<path d="M17.6082 41.7903H17.6467C17.7551 41.7512 17.8656 41.7178 17.9776 41.6903L18.0507 41.6711C18.1545 41.648 18.2584 41.6287 18.3661 41.6133H18.4431C18.5806 41.5898 18.7193 41.5744 18.8586 41.5672H19.8705V12H18.8471C18.093 12.001 17.37 12.3008 16.8364 12.8336C16.3028 13.3665 16.002 14.0891 16 14.8432V42.9676C16.4179 42.4351 16.9743 42.0278 17.6082 41.7903Z" fill="#D99E4B"/>
<path d="M20.64 12V41.5672H44.6707V12H20.64ZM37.9532 37.9699H26.538C26.436 37.9699 26.3381 37.9293 26.2659 37.8572C26.1938 37.785 26.1533 37.6872 26.1533 37.5851C26.1533 37.4831 26.1938 37.3852 26.2659 37.3131C26.3381 37.2409 26.436 37.2004 26.538 37.2004H37.9647C38.0668 37.2004 38.1646 37.2409 38.2368 37.3131C38.3089 37.3852 38.3495 37.4831 38.3495 37.5851C38.3495 37.6872 38.3089 37.785 38.2368 37.8572C38.1646 37.9293 38.0668 37.9699 37.9647 37.9699H37.9532ZM40.1616 35.5345H24.3334C24.2314 35.5345 24.1335 35.4939 24.0614 35.4218C23.9892 35.3496 23.9487 35.2518 23.9487 35.1497C23.9487 35.0477 23.9892 34.9498 24.0614 34.8777C24.1335 34.8055 24.2314 34.765 24.3334 34.765H40.1731C40.2752 34.765 40.373 34.8055 40.4452 34.8777C40.5173 34.9498 40.5579 35.0477 40.5579 35.1497C40.5579 35.2518 40.5173 35.3496 40.4452 35.4218C40.373 35.4939 40.2752 35.5345 40.1731 35.5345H40.1616ZM38.0648 28.0475C37.212 28.0464 36.3945 27.7072 35.7915 27.1043C35.1886 26.5013 34.8494 25.6838 34.8484 24.831C34.8484 24.729 34.8889 24.6311 34.961 24.559C35.0332 24.4868 35.1311 24.4463 35.2331 24.4463H35.4562L37.48 19.7486H33.875C33.8033 20.0483 33.6505 20.3224 33.4333 20.5409C33.2162 20.7595 32.943 20.914 32.6438 20.9875V29.7865H34.6368C34.7629 29.786 34.8879 29.8104 35.0045 29.8583C35.1212 29.9062 35.2273 29.9767 35.3166 30.0657C35.406 30.1547 35.4769 30.2605 35.5253 30.377C35.5737 30.4935 35.5986 30.6183 35.5986 30.7445V31.4216H35.7217C35.8238 31.4216 35.9216 31.4621 35.9938 31.5343C36.0659 31.6065 36.1065 31.7043 36.1065 31.8064C36.1065 31.9084 36.0659 32.0063 35.9938 32.0784C35.9216 32.1506 35.8238 32.1911 35.7217 32.1911H28.7156C28.6136 32.1911 28.5157 32.1506 28.4436 32.0784C28.3714 32.0063 28.3309 31.9084 28.3309 31.8064C28.3309 31.7043 28.3714 31.6065 28.4436 31.5343C28.5157 31.4621 28.6136 31.4216 28.7156 31.4216H28.8618V30.7445C28.8618 30.4904 28.9628 30.2467 29.1424 30.0671C29.3221 29.8874 29.5657 29.7865 29.8198 29.7865H31.8743V20.9875C31.5738 20.9158 31.2992 20.762 31.0811 20.5432C30.863 20.3244 30.7101 20.0493 30.6393 19.7486H27.0228L29.0465 24.4463H29.2696C29.3717 24.4463 29.4695 24.4868 29.5417 24.559C29.6138 24.6311 29.6544 24.729 29.6544 24.831C29.6693 25.2625 29.5972 25.6926 29.4424 26.0956C29.2876 26.4987 29.0532 26.8664 28.7532 27.1769C28.4533 27.4875 28.0938 27.7344 27.6964 27.9031C27.299 28.0718 26.8716 28.1587 26.4399 28.1587C26.0081 28.1587 25.5808 28.0718 25.1834 27.9031C24.7859 27.7344 24.4265 27.4875 24.1266 27.1769C23.8266 26.8664 23.5922 26.4987 23.4374 26.0956C23.2826 25.6926 23.2105 25.2625 23.2254 24.831C23.2254 24.729 23.2659 24.6311 23.3381 24.559C23.4102 24.4868 23.5081 24.4463 23.6101 24.4463H23.8333L25.857 19.7486H25.3107C25.2086 19.7486 25.1108 19.7081 25.0386 19.636C24.9665 19.5638 24.9259 19.4659 24.9259 19.3639C24.9259 19.2619 24.9665 19.164 25.0386 19.0918C25.1108 19.0197 25.2086 18.9792 25.3107 18.9792H30.6278C30.7122 18.6118 30.9187 18.2839 31.2137 18.049C31.5086 17.8142 31.8744 17.6864 32.2514 17.6864C32.6283 17.6864 32.9942 17.8142 33.2891 18.049C33.584 18.2839 33.7905 18.6118 33.875 18.9792H39.1844C39.2864 18.9792 39.3843 19.0197 39.4564 19.0918C39.5286 19.164 39.5691 19.2619 39.5691 19.3639C39.5691 19.4659 39.5286 19.5638 39.4564 19.636C39.3843 19.7081 39.2864 19.7486 39.1844 19.7486H38.6496L40.6695 24.4463H40.8926C40.9946 24.4463 41.0925 24.4868 41.1647 24.559C41.2368 24.6311 41.2773 24.729 41.2773 24.831C41.2763 25.6831 40.9377 26.5 40.3355 27.1029C39.7334 27.7058 38.9168 28.0454 38.0648 28.0475Z" fill="#D99E4B"/>
<path d="M35.7217 25.2158H35.6602C35.7522 25.7903 36.0459 26.3133 36.4887 26.6909C36.9315 27.0684 37.4944 27.2758 38.0763 27.2758C38.6582 27.2758 39.2211 27.0684 39.6639 26.6909C40.1067 26.3133 40.4005 25.7903 40.4925 25.2158H35.7217Z" fill="#D99E4B"/>
<path d="M38.0648 20.3373L36.295 24.4463H39.8346L38.0648 20.3373Z" fill="#D99E4B"/>
<path d="M32.2591 18.4597C32.0802 18.4597 31.9054 18.5127 31.7567 18.6121C31.6081 18.7114 31.4922 18.8526 31.4237 19.0179C31.3553 19.1831 31.3374 19.3649 31.3723 19.5402C31.4072 19.7156 31.4933 19.8767 31.6197 20.0032C31.7462 20.1296 31.9073 20.2157 32.0827 20.2506C32.2581 20.2855 32.4398 20.2676 32.6051 20.1992C32.7703 20.1307 32.9115 20.0148 33.0108 19.8662C33.1102 19.7175 33.1632 19.5427 33.1632 19.3639C33.1632 19.1241 33.0679 18.8941 32.8984 18.7245C32.7288 18.555 32.4988 18.4597 32.2591 18.4597ZM32.2591 19.7024C32.1921 19.7024 32.1266 19.6826 32.071 19.6454C32.0153 19.6082 31.9719 19.5553 31.9463 19.4934C31.9206 19.4316 31.9139 19.3635 31.927 19.2978C31.9401 19.2321 31.9723 19.1718 32.0197 19.1244C32.067 19.0771 32.1273 19.0449 32.193 19.0318C32.2587 19.0187 32.3268 19.0254 32.3886 19.0511C32.4505 19.0767 32.5034 19.1201 32.5406 19.1758C32.5778 19.2314 32.5976 19.2969 32.5976 19.3639C32.5976 19.4536 32.562 19.5398 32.4985 19.6033C32.435 19.6668 32.3488 19.7024 32.2591 19.7024Z" fill="#D99E4B"/>
</svg>
