<svg width="24" height="24" viewBox="0 0 24 24" fill="none" xmlns="http://www.w3.org/2000/svg">
<path d="M18.2652 19.703L18.4774 20.5502H5.52289L5.73511 19.703C5.81095 19.3996 6.08367 19.1865 6.39646 19.1865H17.6038C17.9166 19.1865 18.1893 19.3996 18.2652 19.703Z" fill="#9F6E19"/>
<path d="M21.2047 10.3228H21.0461L18.4995 6.50291C18.8847 6.35632 19.1592 5.98643 19.1592 5.55007C19.1592 4.98502 18.7015 4.52734 18.1364 4.52734H5.86371C5.29867 4.52734 4.84099 4.98502 4.84099 5.55007C4.84099 5.98643 5.11542 6.35632 5.50064 6.50291L2.95402 10.3228H2.7955C2.41963 10.3228 2.11368 10.6288 2.11368 11.0047V11.3456C2.11368 13.4132 3.79606 15.0957 5.86379 15.0957C7.93152 15.0957 9.6139 13.4133 9.6139 11.3456V11.0047C9.6139 10.6288 9.30794 10.3228 8.93208 10.3228H8.77356L6.27385 6.57273H17.7275L15.2278 10.3228H15.0693C14.6934 10.3228 14.3875 10.6288 14.3875 11.0047V11.3456C14.3875 13.4132 16.0698 15.0957 18.1376 15.0957C20.2052 15.0957 21.8877 13.4133 21.8877 11.3456V11.0047C21.8877 10.6288 21.5817 10.3228 21.2059 10.3228H21.2047ZM3.77302 10.3228L5.86364 7.18735L7.95426 10.3228H3.77302ZM16.0457 10.3228L18.1364 7.18735L20.227 10.3228H16.0457Z" fill="#9F6E19"/>
<path d="M13.0228 2.48171C13.0228 1.91666 12.5652 1.45898 12.0001 1.45898C11.4351 1.45898 10.9774 1.91666 10.9774 2.48171V3.84535H13.0228V2.48171Z" fill="#9F6E19"/>
<path d="M10.9772 7.25439V16.4591H9.5539C9.23856 16.4591 8.96413 16.6755 8.89082 16.9832L8.52859 18.5045H15.4711L15.1089 16.9832C15.0356 16.6764 14.7612 16.4591 14.4458 16.4591H13.0226V7.25439H10.9772Z" fill="#9F6E19"/>
</svg>
