<svg width="144" height="36" viewBox="0 0 144 36" fill="none" xmlns="http://www.w3.org/2000/svg">
<path d="M34.2435 9.77066V6.84977L43.8222 3.62578L43.5468 2L33.0437 5.52711V10.4595C33.0437 13.2978 32.0799 16.0258 30.467 17.7618C29.6016 18.6987 29.0902 20.1591 29.0902 21.6746V23.9893C29.0902 25.1742 28.6378 26.2213 27.8904 26.7724L26.2382 27.9573V10.8178H29.2082C29.7786 10.8178 30.2507 11.4791 30.2507 12.2782V12.4987C30.2507 13.2978 29.7786 13.9591 29.2082 13.9591C28.6378 13.9591 28.1658 13.2978 28.1658 12.4987V12.2231H26.966V12.4987C26.966 14.2347 27.9691 15.64 29.2082 15.64C30.4474 15.64 31.4505 14.2347 31.4505 12.4987V12.2782C31.4505 10.5422 30.4474 9.13688 29.2082 9.13688H14.614C13.3748 9.13688 12.3717 10.5422 12.3717 12.2782V12.4987C12.3717 14.2347 13.3748 15.64 14.614 15.64C15.8531 15.64 16.8562 14.2347 16.8562 12.4987V12.2231H15.6564V12.4987C15.6564 13.2978 15.1844 13.9591 14.614 13.9591C14.0436 13.9591 13.5715 13.2978 13.5715 12.4987V12.2782C13.5715 11.4791 14.0436 10.8178 14.614 10.8178H17.584V27.9849L15.9318 26.8C15.1844 26.2489 14.732 25.2018 14.732 24.0169V21.7022C14.732 20.1866 14.2206 18.6987 13.3551 17.7893C11.7423 16.0533 10.7785 13.2978 10.7785 10.4595V5.52711L0.275364 2L0 3.62578L9.57873 6.84977V9.77066L2.95033 7.53866L2.67496 9.16444L9.61807 11.5067C9.69674 12.5813 9.87376 13.6284 10.1688 14.6204L5.62529 13.1049L5.34993 14.7307L10.9359 16.6044C11.4079 17.5689 11.9587 18.4231 12.6274 19.112C13.1978 19.7182 13.5518 20.6826 13.5518 21.7022V24.0169C13.5518 25.808 14.2599 27.4613 15.4007 28.288L21.9111 33L28.4215 28.288C29.5623 27.4613 30.2704 25.8355 30.2704 24.0169V21.7022C30.2704 20.6826 30.6047 19.7182 31.1948 19.112C31.8635 18.3955 32.4339 17.5413 32.8863 16.6044L38.4723 14.7307L38.1969 13.1049L33.6534 14.6204C33.9484 13.6284 34.1255 12.5813 34.2041 11.5067L41.1472 9.16444L40.8719 7.53866L34.2435 9.77066ZM25.0188 28.8391L23.9173 29.6382V10.8178H25.0188V28.8391ZM18.7837 10.8178H19.8852V29.6382L18.7837 28.8391V10.8178ZM21.085 30.4924V10.8178H22.7372V30.4924L21.9111 31.0986L21.085 30.4924Z" fill="#D99E4B"/>
<path d="M29.1886 5.72021H14.614V7.4011H29.1886V5.72021Z" fill="#D99E4B"/>
<path d="M49.1584 35.6727V35.0693C49.9831 35.029 50.6872 34.8077 51.2706 34.4054C51.874 34.0031 52.3267 33.3192 52.6284 32.3536C52.9301 31.388 53.081 30.0704 53.081 28.4008V11.8352C53.081 11.0909 53.0207 10.5477 52.9 10.2058C52.7994 9.84366 52.5781 9.60227 52.2361 9.48157C51.8942 9.34076 51.4013 9.2603 50.7576 9.24018V8.6367C51.2203 8.65681 51.8338 8.67693 52.5982 8.69704C53.3828 8.71716 54.1975 8.72722 55.0423 8.72722C55.8872 8.72722 56.712 8.71716 57.5166 8.69704C58.3414 8.67693 59.0153 8.65681 59.5383 8.6367V9.24018C58.8745 9.2603 58.3715 9.34076 58.0296 9.48157C57.7077 9.60227 57.4864 9.84366 57.3657 10.2058C57.2652 10.5477 57.2149 11.0909 57.2149 11.8352V22.8789C57.2149 23.7037 57.2048 24.5988 57.1847 25.5644C57.1847 26.53 57.1445 27.4654 57.064 28.3706C57.0037 29.2758 56.883 30.0704 56.7019 30.7544C56.3197 32.1625 55.4949 33.3292 54.2276 34.2546C52.9603 35.2 51.2706 35.6727 49.1584 35.6727ZM75.3764 14.068V26.7412C75.3764 27.6464 75.5273 28.3203 75.829 28.7629C76.1308 29.1853 76.6638 29.3965 77.4283 29.3965V30.0302C76.8047 29.9698 76.1811 29.9397 75.5575 29.9397C74.8132 29.9397 74.099 29.9698 73.4151 30.0302C72.7513 30.0905 72.1377 30.2012 71.5745 30.3621V27.3447C71.0716 28.4511 70.3776 29.2456 69.4925 29.7284C68.6275 30.1911 67.6921 30.4224 66.6863 30.4224C65.9017 30.4224 65.2379 30.3118 64.6948 30.0905C64.1717 29.8894 63.7493 29.6077 63.4274 29.2456C63.0855 28.8634 62.8441 28.3605 62.7033 27.7369C62.5625 27.1133 62.492 26.3087 62.492 25.323V17.6889C62.492 16.7837 62.3412 16.1199 62.0394 15.6974C61.7578 15.2549 61.2247 15.0336 60.4402 15.0336V14.4C61.0839 14.4603 61.7075 14.4905 62.311 14.4905C63.0553 14.4905 63.7594 14.4603 64.4232 14.4C65.1071 14.3195 65.7307 14.2089 66.294 14.068V26.3791C66.294 26.9222 66.3342 27.405 66.4147 27.8275C66.5153 28.2499 66.7064 28.5919 66.988 28.8534C67.2696 29.0948 67.6921 29.2155 68.2553 29.2155C68.8789 29.2155 69.4422 29.0344 69.9451 28.6723C70.448 28.3102 70.8402 27.8174 71.1219 27.1938C71.4236 26.5702 71.5745 25.8661 71.5745 25.0816V17.6889C71.5745 16.7837 71.4236 16.1199 71.1219 15.6974C70.8402 15.2549 70.3072 15.0336 69.5226 15.0336V14.4C70.1663 14.4603 70.7899 14.4905 71.3934 14.4905C72.1377 14.4905 72.8418 14.4603 73.5056 14.4C74.1896 14.3195 74.8132 14.2089 75.3764 14.068ZM84.5699 13.9775C85.4147 13.9775 86.1389 14.0982 86.7424 14.3396C87.3459 14.581 87.7884 14.7922 88.0701 14.9733C88.754 15.4762 89.1664 15.1543 89.3072 14.0077H89.971C89.9308 14.5911 89.9006 15.2851 89.8805 16.0897C89.8604 16.8742 89.8503 17.9303 89.8503 19.258H89.1865C89.0859 18.5137 88.8948 17.7895 88.6132 17.0855C88.3316 16.3814 87.9192 15.798 87.3761 15.3354C86.8329 14.8526 86.1188 14.6112 85.2337 14.6112C84.6101 14.6112 84.0871 14.7922 83.6646 15.1543C83.2623 15.5164 83.0612 16.0294 83.0612 16.6932C83.0612 17.2967 83.2422 17.8298 83.6043 18.2924C83.9664 18.735 84.4291 19.1574 84.9923 19.5597C85.5757 19.9419 86.1792 20.3644 86.8028 20.8271C87.5269 21.3098 88.1707 21.8027 88.7339 22.3056C89.2972 22.7884 89.7498 23.3315 90.0917 23.935C90.4337 24.5184 90.6047 25.2124 90.6047 26.017C90.6047 26.9424 90.3432 27.7369 89.8202 28.4008C89.3173 29.0445 88.6434 29.5474 87.7985 29.9095C86.9737 30.2515 86.0585 30.4224 85.0527 30.4224C84.5095 30.4224 84.0167 30.3721 83.5741 30.2716C83.1316 30.171 82.7393 30.0402 82.3973 29.8793C82.1358 29.7385 81.8944 29.6077 81.6731 29.487C81.472 29.3663 81.2608 29.2658 81.0395 29.1853C80.8383 29.0847 80.6573 29.1249 80.4964 29.306C80.3555 29.487 80.2449 29.7888 80.1644 30.2112H79.5006C79.5408 29.5675 79.571 28.783 79.5911 27.8576C79.6112 26.9323 79.6213 25.7052 79.6213 24.1764H80.2851C80.426 25.2828 80.6372 26.2584 80.9188 27.1033C81.2205 27.928 81.653 28.5818 82.2163 29.0646C82.7795 29.5273 83.5037 29.7586 84.3888 29.7586C84.771 29.7586 85.1331 29.6781 85.4751 29.5172C85.8372 29.3563 86.1289 29.1048 86.3501 28.7629C86.5915 28.4209 86.7122 27.9582 86.7122 27.3748C86.7122 26.4897 86.4105 25.7555 85.807 25.1721C85.2035 24.5888 84.4492 23.9652 83.5439 23.3013C82.86 22.7984 82.2163 22.3056 81.6128 21.8228C81.0294 21.34 80.5466 20.7969 80.1644 20.1934C79.8024 19.5899 79.6213 18.8758 79.6213 18.051C79.6213 17.1458 79.8526 16.4015 80.3153 15.8181C80.778 15.2147 81.3815 14.7621 82.1258 14.4603C82.8902 14.1385 83.7049 13.9775 84.5699 13.9775ZM98.3001 9.4514V14.4301H102.162V15.0336H98.3001V27.0429C98.3001 27.7671 98.4308 28.2801 98.6923 28.5818C98.9538 28.8836 99.326 29.0344 99.8088 29.0344C100.271 29.0344 100.694 28.8634 101.076 28.5215C101.458 28.1594 101.8 27.566 102.102 26.7412L102.645 26.9826C102.343 27.9683 101.871 28.793 101.227 29.4569C100.603 30.1006 99.7182 30.4224 98.5716 30.4224C97.8877 30.4224 97.3043 30.3319 96.8215 30.1509C96.3588 29.9899 95.9565 29.7485 95.6146 29.4267C95.172 28.964 94.8703 28.4108 94.7093 27.7671C94.5685 27.1234 94.4981 26.2685 94.4981 25.2023V15.0336H91.8428V14.4301H94.4981V10.2359C95.2223 10.2158 95.8962 10.1454 96.5198 10.0247C97.1434 9.90401 97.7368 9.71291 98.3001 9.4514ZM106.947 6.70555C107.671 6.70555 108.264 6.90671 108.727 7.30903C109.19 7.71136 109.421 8.24443 109.421 8.90826C109.421 9.5721 109.19 10.1052 108.727 10.5075C108.264 10.9098 107.671 11.111 106.947 11.111C106.223 11.111 105.629 10.9098 105.167 10.5075C104.704 10.1052 104.473 9.5721 104.473 8.90826C104.473 8.24443 104.704 7.71136 105.167 7.30903C105.629 6.90671 106.223 6.70555 106.947 6.70555ZM109.059 14.068V27.1938C109.059 28.0387 109.21 28.612 109.512 28.9137C109.833 29.2155 110.367 29.3663 111.111 29.3663V30C110.749 29.9799 110.196 29.9598 109.451 29.9397C108.707 29.8994 107.953 29.8793 107.188 29.8793C106.444 29.8793 105.69 29.8994 104.925 29.9397C104.161 29.9598 103.587 29.9799 103.205 30V29.3663C103.95 29.3663 104.473 29.2155 104.774 28.9137C105.096 28.612 105.257 28.0387 105.257 27.1938V17.7191C105.257 16.7938 105.106 16.1199 104.804 15.6974C104.523 15.2549 103.99 15.0336 103.205 15.0336V14.4C103.849 14.4603 104.473 14.4905 105.076 14.4905C105.82 14.4905 106.524 14.4603 107.188 14.4C107.872 14.3195 108.496 14.2089 109.059 14.068ZM116.682 30.2112C115.817 30.2112 115.082 30.0503 114.479 29.7284C113.875 29.3865 113.423 28.9338 113.121 28.3706C112.819 27.7872 112.668 27.1435 112.668 26.4394C112.668 25.5745 112.87 24.8704 113.272 24.3273C113.674 23.764 114.187 23.3215 114.811 22.9996C115.454 22.6576 116.128 22.376 116.832 22.1547C117.536 21.9133 118.2 21.692 118.824 21.4909C119.447 21.2696 119.96 21.0182 120.363 20.7365C120.765 20.4549 120.966 20.0828 120.966 19.6201V17.4174C120.966 16.7737 120.866 16.2506 120.665 15.8483C120.483 15.4259 120.202 15.1141 119.82 14.9129C119.458 14.6916 118.995 14.581 118.432 14.581C118.009 14.581 117.567 14.6414 117.104 14.7621C116.641 14.8827 116.259 15.1141 115.957 15.4561C116.48 15.5969 116.883 15.8584 117.164 16.2406C117.466 16.6228 117.617 17.0855 117.617 17.6286C117.617 18.2522 117.406 18.745 116.983 19.1071C116.581 19.4491 116.068 19.6201 115.444 19.6201C114.781 19.6201 114.278 19.4089 113.936 18.9864C113.594 18.564 113.423 18.0711 113.423 17.5079C113.423 16.9446 113.564 16.482 113.845 16.1199C114.127 15.7377 114.519 15.3957 115.022 15.094C115.525 14.752 116.169 14.4804 116.953 14.2793C117.738 14.0781 118.593 13.9775 119.518 13.9775C120.403 13.9775 121.188 14.0781 121.871 14.2793C122.555 14.4603 123.139 14.7922 123.622 15.275C124.104 15.7377 124.416 16.311 124.557 16.9949C124.698 17.6789 124.768 18.5137 124.768 19.4994V27.7671C124.768 28.27 124.829 28.6321 124.949 28.8534C125.07 29.0545 125.261 29.1551 125.523 29.1551C125.724 29.1551 125.915 29.1048 126.096 29.0043C126.277 28.9037 126.478 28.7629 126.699 28.5818L127.031 29.0948C126.589 29.4367 126.126 29.7083 125.643 29.9095C125.16 30.1106 124.577 30.2112 123.893 30.2112C123.189 30.2112 122.626 30.1106 122.203 29.9095C121.801 29.7083 121.499 29.4166 121.298 29.0344C121.117 28.6522 121.017 28.1996 120.996 27.6766C120.514 28.4812 119.92 29.1048 119.216 29.5474C118.512 29.9899 117.667 30.2112 116.682 30.2112ZM118.492 28.5215C118.975 28.5215 119.417 28.3907 119.82 28.1292C120.242 27.8677 120.624 27.4754 120.966 26.9524V20.8572C120.765 21.159 120.473 21.4305 120.091 21.6719C119.729 21.9133 119.337 22.1547 118.914 22.3961C118.492 22.6375 118.09 22.9191 117.707 23.241C117.345 23.5427 117.034 23.9249 116.772 24.3876C116.531 24.8302 116.41 25.4035 116.41 26.1075C116.41 26.8921 116.601 27.4955 116.983 27.918C117.365 28.3203 117.868 28.5215 118.492 28.5215ZM134.175 14.4V15.0336C133.793 15.0336 133.491 15.1241 133.27 15.3052C133.048 15.4862 133.038 15.7377 133.239 16.0595L141.236 27.8576C141.517 28.26 141.789 28.5919 142.05 28.8534C142.312 29.1149 142.624 29.2859 142.986 29.3663V30C142.704 29.9799 142.292 29.9598 141.748 29.9397C141.205 29.8994 140.662 29.8793 140.119 29.8793C139.415 29.8793 138.691 29.8994 137.947 29.9397C137.222 29.9598 136.679 29.9799 136.317 30V29.3663C136.719 29.3663 137.031 29.2758 137.253 29.0948C137.474 28.8936 137.474 28.6422 137.253 28.3404L129.256 16.5423C128.914 16.0193 128.623 15.6572 128.381 15.4561C128.14 15.2348 127.848 15.094 127.506 15.0336V14.4C127.808 14.4201 128.261 14.4503 128.864 14.4905C129.468 14.5106 130.051 14.5207 130.614 14.5207C131.298 14.5207 131.982 14.5106 132.666 14.4905C133.35 14.4503 133.853 14.4201 134.175 14.4ZM133.994 22.5168C133.994 22.5168 134.004 22.5772 134.024 22.6979C134.064 22.8186 134.104 22.9493 134.145 23.0901C134.185 23.2108 134.205 23.2712 134.205 23.2712L132.576 25.4135C131.992 26.1578 131.67 26.8217 131.61 27.405C131.57 27.9884 131.751 28.4511 132.153 28.793C132.555 29.135 133.109 29.3362 133.813 29.3965V30C133.451 29.9799 133.008 29.9698 132.485 29.9698C131.982 29.9497 131.489 29.9397 131.006 29.9397C130.524 29.9195 130.121 29.9095 129.8 29.9095C129.337 29.9095 128.924 29.9195 128.562 29.9397C128.22 29.9397 127.899 29.9598 127.597 30V29.3965C128.039 29.2758 128.472 29.0445 128.894 28.7025C129.317 28.3404 129.8 27.8174 130.343 27.1335L133.994 22.5168ZM142.201 14.4V15.0034C141.799 15.1241 141.366 15.3756 140.904 15.7578C140.441 16.1199 139.968 16.6228 139.485 17.2665L136.076 21.6719C136.076 21.6719 136.056 21.6116 136.015 21.4909C135.995 21.3501 135.965 21.2193 135.925 21.0986C135.905 20.9779 135.895 20.9176 135.895 20.9176L137.705 18.4735C138.208 17.8096 138.52 17.2263 138.641 16.7234C138.761 16.2205 138.681 15.8282 138.399 15.5466C138.118 15.2448 137.615 15.0638 136.89 15.0034V14.4C137.454 14.4201 137.987 14.4402 138.49 14.4603C139.013 14.4804 139.526 14.4905 140.029 14.4905C140.471 14.4905 140.863 14.4804 141.205 14.4603C141.567 14.4402 141.899 14.4201 142.201 14.4Z" fill="#FEFEFE"/>
</svg>
