<svg width="24" height="24" viewBox="0 0 24 24" fill="none" xmlns="http://www.w3.org/2000/svg">
<path d="M13.0445 8.38601L8.87063 4.24121L4.56287 8.54897L8.73575 12.6938L13.0445 8.38601Z" fill="#9F6E19"/>
<path d="M13.3968 7.72125C13.65 7.9725 14.0587 7.9725 14.3109 7.72125L14.3493 7.68281C14.5687 7.44187 14.5856 7.07906 14.3906 6.81842C13.3659 5.21062 11.6447 3.52322 10.3538 2.8013C10.0903 2.61756 9.73503 2.63818 9.4941 2.85099L9.44628 2.89693C9.19784 3.14631 9.19784 3.55038 9.44628 3.7988L13.3968 7.72125Z" fill="#9F6E19"/>
<path d="M8.06904 13.049C8.18998 13.169 8.25841 13.334 8.25841 13.5046C8.25841 13.6762 8.18997 13.8403 8.06904 13.9612L8.03341 13.9968H8.03248C7.7906 14.2162 7.42686 14.234 7.16435 14.0399C5.5509 13.0246 3.85211 11.3155 3.11987 10.0293C2.93612 9.76775 2.95487 9.4143 3.16581 9.17243L3.21549 9.11993C3.46768 8.87148 3.87175 8.87148 4.12298 9.11993L8.06904 13.049Z" fill="#9F6E19"/>
<path d="M20.5078 20.0973C20.5893 20.0561 20.6203 19.9651 20.6924 19.9126C21.1715 19.2695 21.0824 18.3667 20.4862 17.8295L12.072 10.4233L11.4148 11.0618L10.7755 11.719L18.2399 20.0815C18.7818 20.6731 19.6827 20.7603 20.3277 20.2831C20.3756 20.2109 20.4693 20.177 20.5078 20.0973Z" fill="#9F6E19"/>
<path d="M13.2506 17.52L13.7325 18.0628V18.6356H14.1863L14.7891 19.2413V20.8416H3.31683V19.2413L3.91871 18.6356H4.37245V18.0628L4.85526 17.52H13.2506Z" fill="#9F6E19"/>
</svg>
