<svg width="81" height="13" viewBox="0 0 81 13" fill="none" xmlns="http://www.w3.org/2000/svg">
<g clip-path="url(#clip0_188_142)">
<path fill-rule="evenodd" clip-rule="evenodd" d="M24.1532 0L16.672 13H9.64502L12.7759 7.61222H12.6354C10.0525 10.5927 6.19864 12.5547 0.70752 13V7.68683C0.70752 7.68683 4.22032 7.50237 6.2854 5.57249H0.70752V0.00010254H6.97645V4.58331L7.11715 4.5828L9.6789 0.00010254H14.4199V4.55425L14.5606 4.55404L17.2184 0H24.1532Z" fill="#D99E4B"/>
<path d="M60.2976 11.3366H62.0113V1.5H60.2976V11.3366Z" fill="#D99E4B"/>
<path fill-rule="evenodd" clip-rule="evenodd" d="M50.8503 11.2362C51.2227 11.391 51.6015 11.4684 51.9865 11.4684C52.6225 11.4684 53.1917 11.3136 53.6939 11.0039C54.196 10.6942 54.5853 10.2674 54.8615 9.72334C55.1377 9.17514 55.2758 8.55363 55.2758 7.85895C55.2758 7.16427 55.1335 6.54284 54.8489 5.99462C54.5643 5.44641 54.1689 5.02164 53.6625 4.72033C53.1561 4.41483 52.5807 4.26418 51.9362 4.26836C51.5261 4.26836 51.1328 4.34788 50.7561 4.5069C50.3795 4.66593 50.0656 4.89191 49.8145 5.18485C49.7951 5.20715 49.7763 5.22968 49.758 5.25243V1.50635H48.0381V11.3366H49.7455L49.742 10.4183C49.7862 10.4724 49.8334 10.5253 49.8835 10.5771C50.1555 10.8575 50.4778 11.0771 50.8503 11.2362ZM52.6079 9.64803C52.3275 9.81962 52.0074 9.90541 51.6475 9.90541C51.2917 9.90541 50.9653 9.81748 50.6682 9.64176C50.3711 9.46176 50.1346 9.217 49.9589 8.90728C49.7873 8.59763 49.7015 8.24605 49.7015 7.85268C49.6973 7.4593 49.781 7.10779 49.9526 6.79812C50.1284 6.48425 50.3648 6.24153 50.662 6.06995C50.9591 5.89419 51.2876 5.80839 51.6475 5.81258C52.0074 5.80839 52.3275 5.89209 52.6079 6.06367C52.8925 6.23106 53.1101 6.4717 53.2607 6.78556C53.4156 7.09524 53.493 7.45096 53.493 7.85268C53.493 8.25447 53.4156 8.61019 53.2607 8.91984C53.1101 9.22956 52.8925 9.47224 52.6079 9.64803Z" fill="#D99E4B"/>
<path d="M28.1532 2.09668H30.1117L31.8637 8.49493L33.7275 2.09668H35.3596L37.3809 8.36652L39.0632 2.09668H40.8585L38.2095 11.3369H36.5209L34.4654 5.21173L32.5787 11.3369H30.8713L28.1532 2.09668Z" fill="#D99E4B"/>
<path fill-rule="evenodd" clip-rule="evenodd" d="M43.7507 11.5006C43.0685 11.5048 42.4533 11.3541 41.9051 11.0486C41.361 10.7389 40.9321 10.3099 40.6182 9.76175C40.3086 9.21355 40.1537 8.5879 40.1537 7.88481C40.1537 7.20268 40.3128 6.58544 40.6308 6.03304C40.9488 5.48063 41.3799 5.04959 41.9239 4.73991C42.468 4.43023 43.0747 4.27539 43.7443 4.27539C44.4976 4.27539 45.1567 4.44278 45.7217 4.77757C46.2908 5.11236 46.7156 5.58735 46.996 6.20252C47.2805 6.81351 47.3831 7.51447 47.3036 8.30542H41.9266C41.9416 8.62052 42.0203 8.90721 42.1625 9.16541C42.3215 9.44996 42.5433 9.67175 42.8278 9.83078C43.1125 9.98981 43.4304 10.0693 43.782 10.0693C44.0498 10.0651 44.2989 10.0191 44.529 9.93126C44.7592 9.83919 44.9537 9.71575 45.1128 9.56085C45.276 9.40603 45.3911 9.23031 45.4581 9.03362H47.2534C47.1445 9.51485 46.927 9.94381 46.6005 10.3204C46.2741 10.6929 45.864 10.9837 45.3701 11.193C44.8764 11.4022 44.3365 11.5048 43.7507 11.5006ZM42.1687 6.57916C42.0685 6.75404 41.9989 6.94234 41.9603 7.14413H45.5246C45.4987 6.88923 45.42 6.65697 45.2886 6.44733C45.1379 6.20043 44.9328 6.01002 44.6734 5.8761C44.414 5.738 44.121 5.66895 43.7946 5.66895C43.4472 5.66895 43.1313 5.74846 42.8467 5.90749C42.5621 6.06651 42.3361 6.29041 42.1687 6.57916Z" fill="#D99E4B"/>
<path d="M56.5376 4.41867C56.5376 3.8579 56.6652 3.3599 56.9205 2.92467C57.1757 2.48526 57.5336 2.14419 57.9939 1.90147C58.4584 1.65456 59.0004 1.52692 59.6197 1.51855V3.04393C59.3309 3.04812 59.084 3.1088 58.879 3.22598C58.6781 3.33897 58.5233 3.50427 58.4145 3.72188C58.3143 3.92223 58.2603 4.15449 58.2523 4.41867H59.582V5.86873H58.2513V11.3363H56.5376V5.86873H55.4328V4.41867H56.5376Z" fill="#D99E4B"/>
<path fill-rule="evenodd" clip-rule="evenodd" d="M66.3677 11.487C65.6688 11.487 65.0432 11.3342 64.4908 11.0288C63.9426 10.719 63.5116 10.2922 63.1977 9.74815C62.888 9.19995 62.7332 8.57851 62.7332 7.88376C62.7332 7.18495 62.888 6.56138 63.1977 6.01316C63.5116 5.46075 63.9426 5.03181 64.4908 4.72632C65.0432 4.42082 65.6688 4.26807 66.3677 4.26807C67.0707 4.26807 67.6985 4.42082 68.2509 4.72632C68.8075 5.03181 69.2407 5.45866 69.5503 6.00689C69.86 6.5551 70.0169 7.18074 70.0211 7.88376C70.0169 8.57851 69.86 9.19995 69.5503 9.74815C69.2448 10.2922 68.8138 10.719 68.2571 11.0288C67.7006 11.3342 67.0707 11.487 66.3677 11.487ZM66.3677 9.91139C66.736 9.91139 67.0624 9.82767 67.347 9.66029C67.6316 9.48871 67.8512 9.25016 68.0061 8.94465C68.1609 8.635 68.2383 8.28134 68.2383 7.88376C68.2383 7.48205 68.1609 7.12633 68.0061 6.81665C67.8512 6.50698 67.6316 6.26844 67.347 6.10104C67.0624 5.92947 66.736 5.84367 66.3677 5.84367C66.0037 5.84367 65.6793 5.92947 65.3947 6.10104C65.1144 6.26844 64.8967 6.50698 64.7419 6.81665C64.5871 7.12633 64.5118 7.48205 64.5159 7.88376C64.5159 8.28134 64.5933 8.635 64.7482 8.94465C64.9072 9.25016 65.1248 9.48871 65.401 9.66029C65.6814 9.82767 66.0037 9.91139 66.3677 9.91139Z" fill="#D99E4B"/>
<path d="M71.8729 4.41797H69.9646L72.0298 11.3356H73.6996L75.0579 6.91729L76.5241 11.3356H78.1689L80.2406 4.41797H78.5144L77.3393 8.72375L76.0407 4.41797H74.3713L73.079 8.81858L71.8729 4.41797Z" fill="#D99E4B"/>
</g>
<defs>
<clipPath id="clip0_188_142">
<rect width="79.5331" height="13" fill="white" transform="translate(0.70752)"/>
</clipPath>
</defs>
</svg>
