<svg width="118" height="24" viewBox="0 0 118 24" fill="none" xmlns="http://www.w3.org/2000/svg">
<path d="M32.7439 17.0235H40.849V14.5011H35.6246V5H32.7439V17.0235Z" fill="#524D48"/>
<path d="M45.651 15.3419C44.4954 15.3419 43.8933 14.2993 43.8933 12.7354C43.8933 11.1715 44.4954 10.1121 45.651 10.1121C46.8065 10.1121 47.425 11.1715 47.425 12.7354C47.425 14.2993 46.8065 15.3419 45.651 15.3419ZM45.6673 17.2926C48.3527 17.2926 50.1104 15.3251 50.1104 12.7354C50.1104 10.1457 48.3527 8.17825 45.6673 8.17825C42.9981 8.17825 41.2078 10.1457 41.2078 12.7354C41.2078 15.3251 42.9981 17.2926 45.6673 17.2926Z" fill="#524D48"/>
<path d="M54.7587 20C55.9957 20 57.0861 19.7141 57.8185 19.0415C58.4858 18.4193 58.9252 17.4776 58.9252 16.1827V8.41368H56.3863V9.33856H56.3537C55.8654 8.61547 55.1168 8.16143 54.0101 8.16143C51.9431 8.16143 50.5109 9.94395 50.5109 12.4664C50.5109 15.1065 52.2523 16.5527 54.124 16.5527C55.1331 16.5527 55.7678 16.1323 56.2561 15.5605H56.3212V16.4182C56.3212 17.4608 55.8492 18.0661 54.7262 18.0661C53.8473 18.0661 53.4079 17.6794 53.2614 17.2253H50.6899C50.9503 19.0247 52.4639 20 54.7587 20ZM54.7425 14.5179C53.7497 14.5179 53.0986 13.6771 53.0986 12.3823C53.0986 11.0706 53.7497 10.2298 54.7425 10.2298C55.8492 10.2298 56.4351 11.2052 56.4351 12.3655C56.4351 13.5762 55.898 14.5179 54.7425 14.5179Z" fill="#524D48"/>
<path d="M64.1457 15.3419C62.9902 15.3419 62.388 14.2993 62.388 12.7354C62.388 11.1715 62.9902 10.1121 64.1457 10.1121C65.3013 10.1121 65.9198 11.1715 65.9198 12.7354C65.9198 14.2993 65.3013 15.3419 64.1457 15.3419ZM64.162 17.2926C66.8475 17.2926 68.6052 15.3251 68.6052 12.7354C68.6052 10.1457 66.8475 8.17825 64.162 8.17825C61.4929 8.17825 59.7026 10.1457 59.7026 12.7354C59.7026 15.3251 61.4929 17.2926 64.162 17.2926Z" fill="#524D48"/>
<path d="M69.3796 17.0235H72.0325V8.41368H69.3796V17.0235ZM69.3796 7.21973H72.0325V5H69.3796V7.21973Z" fill="#524D48"/>
<path d="M73.184 19.8655H75.8369V16.1323H75.8694C76.3902 16.8554 77.1552 17.2926 78.2293 17.2926C80.4102 17.2926 81.8587 15.5101 81.8587 12.7186C81.8587 10.1289 80.5079 8.16143 78.2944 8.16143C77.1552 8.16143 76.3414 8.68273 75.7718 9.45628H75.7229V8.41368H73.184V19.8655ZM77.5458 15.1738C76.4065 15.1738 75.7555 14.2152 75.7555 12.8195C75.7555 11.4238 76.3414 10.3643 77.4969 10.3643C78.6362 10.3643 79.1733 11.3397 79.1733 12.8195C79.1733 14.2825 78.5548 15.1738 77.5458 15.1738Z" fill="#524D48"/>
<path d="M86.1778 17.2926C88.3587 17.2926 89.9699 16.3173 89.9699 14.4339C89.9699 12.2309 88.2448 11.8442 86.78 11.5919C85.7221 11.3901 84.7781 11.3061 84.7781 10.7007C84.7781 10.1626 85.2826 9.91031 85.9337 9.91031C86.6661 9.91031 87.1706 10.1457 87.2682 10.9193H89.7096C89.5793 9.22085 88.3099 8.16143 85.9499 8.16143C83.9806 8.16143 82.3531 9.10314 82.3531 10.9193C82.3531 12.9372 83.8993 13.3408 85.3478 13.593C86.4545 13.7948 87.4635 13.8789 87.4635 14.6525C87.4635 15.2074 86.959 15.5101 86.1615 15.5101C85.2827 15.5101 84.7293 15.0897 84.6316 14.2321H82.1252C82.2066 16.1323 83.7365 17.2926 86.1778 17.2926Z" fill="#524D48"/>
<path d="M93.5736 17.2758C94.7291 17.2758 95.4615 16.8049 96.0637 15.9641H96.1125V17.0235H98.6515V8.41368H95.9986V13.2231C95.9986 14.2489 95.4452 14.9552 94.5338 14.9552C93.6875 14.9552 93.2806 14.4339 93.2806 13.4922V8.41368H90.644V14.0639C90.644 15.9809 91.6531 17.2758 93.5736 17.2758Z" fill="#524D48"/>
<path d="M99.805 17.0235H102.458V12.1973C102.458 11.1715 102.946 10.4484 103.776 10.4484C104.574 10.4484 104.948 10.9865 104.948 11.9114V17.0235H107.601V12.1973C107.601 11.1715 108.073 10.4484 108.919 10.4484C109.717 10.4484 110.091 10.9865 110.091 11.9114V17.0235H112.744V11.4238C112.744 9.48991 111.8 8.16143 109.912 8.16143C108.838 8.16143 107.943 8.63229 107.292 9.67489H107.259C106.836 8.75 106.006 8.16143 104.915 8.16143C103.711 8.16143 102.914 8.75 102.393 9.64125H102.344V8.41368H99.805V17.0235Z" fill="#524D48"/>
<path fill-rule="evenodd" clip-rule="evenodd" d="M16.7125 22C22.2181 22 26.6812 17.5228 26.6812 12C26.6812 6.47716 22.2181 2 16.7125 2C11.207 2 6.7439 6.47716 6.7439 12C6.7439 17.5228 11.207 22 16.7125 22ZM19.8224 6.65842C19.9738 6.11903 19.452 5.80007 18.9754 6.14065L12.3229 10.8948C11.8061 11.2641 11.8874 12 12.445 12H14.1968V11.9864H17.611L14.8291 12.971L13.6027 17.3416C13.4513 17.881 13.9731 18.1999 14.4497 17.8593L21.1022 13.1052C21.619 12.7359 21.5377 12 20.9801 12H18.3235L19.8224 6.65842Z" fill="#524D48"/>
</svg>
