<svg width="121" height="24" viewBox="0 0 121 24" fill="none" xmlns="http://www.w3.org/2000/svg">
<g clip-path="url(#clip0_81_1037)">
<path fill-rule="evenodd" clip-rule="evenodd" d="M15.9471 7.01118C14.9702 6.3519 13.8216 6 12.6467 6V0C14.9966 0 17.2937 0.703788 19.2475 2.02237C21.2014 3.34094 22.7242 5.21509 23.6235 7.40778C24.5227 9.60048 21.7745 12.0722 21.3161 14.4C20.8577 16.7278 28.5223 15.8651 26.8607 17.5433C25.1991 19.2215 16.8881 21.137 14.5834 21.6C12.2787 22.063 10.2709 23.9948 8.09994 23.0866C5.92895 22.1783 4.07336 20.6402 2.76785 18.6668C1.46232 16.6934 0.765503 14.3734 0.765503 12L15.9471 7.01118C15.9471 8.19786 7.05451 14.3467 7.70727 15.3334C8.36002 16.3201 9.28782 17.0891 10.3733 17.5433C11.4588 17.9974 12.6533 18.1162 13.8056 17.8847C14.958 17.6532 16.0165 17.0818 16.8473 16.2427C17.6781 15.4035 18.2439 14.3344 18.4731 13.1705C18.7024 12.0067 18.5847 10.8002 18.1351 9.70392C17.6854 8.60754 16.924 7.67046 15.9471 7.01118Z" fill="#524D48"/>
<path d="M75.3907 8.67151H72.5083V17.9189H75.3907V8.67151Z" fill="#524D48"/>
<path d="M72.829 6.93997C73.1302 7.24441 73.5069 7.39663 73.9589 7.39663C74.411 7.39663 74.7817 7.24441 75.0704 6.93997C75.3597 6.62287 75.5041 6.24229 75.5041 5.79832C75.5041 5.34167 75.3597 4.96111 75.0704 4.65668C74.7817 4.35223 74.411 4.20001 73.9589 4.20001C73.5069 4.20001 73.1302 4.35223 72.829 4.65668C72.5397 4.96111 72.3954 5.34167 72.3954 5.79832C72.3954 6.24229 72.5397 6.62287 72.829 6.93997Z" fill="#524D48"/>
<path d="M31.1553 17.9189V4.48541H34.1131V15.2931H40.0098V17.9189H31.1553Z" fill="#524D48"/>
<path fill-rule="evenodd" clip-rule="evenodd" d="M45.3362 18.1282C44.3943 18.1282 43.5403 17.9189 42.7741 17.5003C42.0205 17.069 41.424 16.4855 40.9844 15.7497C40.5448 15.014 40.325 14.1895 40.325 13.2761C40.325 12.3628 40.5448 11.5447 40.9844 10.8216C41.424 10.0985 42.0205 9.5277 42.7741 9.10914C43.5277 8.6778 44.3818 8.46216 45.3362 8.46216C46.2908 8.46216 47.1448 8.6715 47.8983 9.09006C48.6519 9.50868 49.2485 10.0859 49.6881 10.8216C50.1277 11.5447 50.3475 12.3628 50.3475 13.2761C50.3475 14.1895 50.1277 15.014 49.6881 15.7497C49.2485 16.4855 48.6519 17.069 47.8983 17.5003C47.1448 17.9189 46.2908 18.1282 45.3362 18.1282ZM45.3362 15.4834C45.7507 15.4834 46.1149 15.3946 46.4289 15.217C46.7429 15.0267 46.9815 14.7667 47.1448 14.4368C47.3206 14.0944 47.4085 13.7074 47.4085 13.2761C47.4085 12.8449 47.3206 12.4706 47.1448 12.1535C46.9689 11.8237 46.7241 11.57 46.41 11.3924C46.1086 11.2021 45.7507 11.107 45.3362 11.107C44.9343 11.107 44.5764 11.2021 44.2624 11.3924C43.9484 11.57 43.7035 11.8237 43.5277 12.1535C43.3518 12.4834 43.264 12.8639 43.264 13.2952C43.264 13.7138 43.3518 14.0944 43.5277 14.4368C43.7035 14.7667 43.9484 15.0267 44.2624 15.217C44.5764 15.3946 44.9343 15.4834 45.3362 15.4834Z" fill="#524D48"/>
<path fill-rule="evenodd" clip-rule="evenodd" d="M52.6303 21.5341C53.3964 21.8893 54.2818 22.0669 55.2866 22.0669C56.2662 22.0669 57.1391 21.8703 57.9052 21.477C58.6714 21.0838 59.2742 20.5384 59.7138 19.8407C60.1533 19.143 60.3734 18.3185 60.3734 17.3671V8.67152H57.5472V9.29282C57.3371 9.11414 57.0984 8.96414 56.8314 8.84276C56.3415 8.60174 55.7826 8.4812 55.1547 8.4812C54.3132 8.4812 53.5659 8.68418 52.9129 9.09008C52.2597 9.48332 51.7448 10.0288 51.368 10.7265C50.9912 11.4115 50.8029 12.1852 50.8029 13.0479C50.8029 13.8978 50.9912 14.6715 51.368 15.3692C51.7448 16.0669 52.2597 16.6187 52.9129 17.0246C53.5659 17.4305 54.3132 17.6335 55.1547 17.6335C55.7701 17.6335 56.329 17.513 56.8314 17.272C57.0747 17.1552 57.2945 17.0176 57.4908 16.8592V17.4432C57.4908 18.0901 57.2835 18.5912 56.8691 18.9464C56.4672 19.3016 55.9083 19.4791 55.1924 19.4791C54.6147 19.4791 54.1186 19.3777 53.7041 19.1747C53.3022 18.9718 52.9379 18.6736 52.6114 18.2804L50.8406 20.069C51.2801 20.7033 51.8767 21.1917 52.6303 21.5341ZM56.7372 14.7793C56.4483 14.9569 56.103 15.0457 55.701 15.0457C55.2991 15.0457 54.9475 14.9569 54.646 14.7793C54.3571 14.6017 54.1311 14.3607 53.9679 14.0563C53.8045 13.7392 53.7229 13.403 53.7229 13.0479C53.7229 12.6673 53.8045 12.3248 53.9679 12.0204C54.1311 11.7159 54.3634 11.4749 54.6649 11.2973C54.9663 11.1197 55.3117 11.0309 55.701 11.0309C56.103 11.0309 56.4483 11.1197 56.7372 11.2973C57.0386 11.4749 57.2647 11.7159 57.4154 12.0204C57.5787 12.3248 57.6603 12.6673 57.6603 13.0479C57.6603 13.4284 57.5787 13.7709 57.4154 14.0753C57.2647 14.3671 57.0386 14.6017 56.7372 14.7793Z" fill="#524D48"/>
<path fill-rule="evenodd" clip-rule="evenodd" d="M66.4394 18.1282C65.4972 18.1282 64.6429 17.9189 63.8772 17.5003C63.1233 17.069 62.5269 16.4855 62.0873 15.7497C61.6477 15.014 61.4279 14.1895 61.4279 13.2761C61.4279 12.3628 61.6477 11.5447 62.0873 10.8216C62.5269 10.0985 63.1233 9.5277 63.8772 9.10914C64.6305 8.6778 65.4847 8.46216 66.4394 8.46216C67.3934 8.46216 68.2477 8.6715 69.001 9.09006C69.7548 9.50868 70.3513 10.0859 70.7909 10.8216C71.2305 11.5447 71.4503 12.3628 71.4503 13.2761C71.4503 14.1895 71.2305 15.014 70.7909 15.7497C70.3513 16.4855 69.7548 17.069 69.001 17.5003C68.2477 17.9189 67.3934 18.1282 66.4394 18.1282ZM66.4394 15.4834C66.8534 15.4834 67.2176 15.3946 67.5318 15.217C67.8455 15.0267 68.0843 14.7667 68.2477 14.4368C68.4235 14.0944 68.5115 13.7074 68.5115 13.2761C68.5115 12.8449 68.4235 12.4706 68.2477 12.1535C68.0718 11.8237 67.8271 11.57 67.5128 11.3924C67.2117 11.2021 66.8534 11.107 66.4394 11.107C66.0372 11.107 65.679 11.2021 65.3653 11.3924C65.0511 11.57 64.8063 11.8237 64.6305 12.1535C64.4546 12.4834 64.3667 12.8639 64.3667 13.2952C64.3667 13.7138 64.4546 14.0944 64.6305 14.4368C64.8063 14.7667 65.0511 15.0267 65.3653 15.217C65.679 15.3946 66.0372 15.4834 66.4394 15.4834Z" fill="#524D48"/>
<path fill-rule="evenodd" clip-rule="evenodd" d="M82.3186 18.1092C81.7038 18.1092 81.1382 17.9887 80.6232 17.7477C80.3523 17.6208 80.1075 17.4694 79.8889 17.2933V21.8196H77.0439V8.67152H79.9263V9.30974C80.1354 9.137 80.3677 8.98766 80.6232 8.86178C81.1382 8.60804 81.7038 8.4812 82.3186 8.4812C83.1853 8.4812 83.9517 8.69054 84.617 9.10916C85.2954 9.52772 85.823 10.0986 86.1996 10.8216C86.5893 11.5447 86.7836 12.3692 86.7836 13.2952C86.7836 14.2212 86.5893 15.0457 86.1996 15.7688C85.823 16.4919 85.2954 17.0626 84.617 17.4813C83.9517 17.8999 83.1853 18.1092 82.3186 18.1092ZM81.7917 15.4834C82.2057 15.4834 82.564 15.3882 82.8651 15.198C83.1794 15.0077 83.4241 14.7476 83.6 14.4178C83.7758 14.088 83.8638 13.7138 83.8638 13.2952C83.8638 12.8639 83.7758 12.4834 83.6 12.1536C83.4241 11.8237 83.1794 11.5701 82.8651 11.3925C82.564 11.2021 82.2123 11.107 81.8101 11.107C81.4085 11.107 81.0503 11.2021 80.7366 11.3925C80.4348 11.5701 80.1966 11.8237 80.0208 12.1536C79.8449 12.4834 79.757 12.8639 79.757 13.2952C79.757 13.7138 79.8384 14.088 80.0018 14.4178C80.1776 14.7476 80.4224 15.0077 80.7366 15.198C81.0503 15.3882 81.402 15.4834 81.7917 15.4834Z" fill="#524D48"/>
<path d="M89.6047 17.9379C90.1322 18.0775 90.6657 18.1472 91.2057 18.1472C92.3486 18.1472 93.2528 17.8808 93.9187 17.348C94.5966 16.8153 94.9358 16.0986 94.9358 15.1979C94.9358 14.6144 94.8294 14.1451 94.6156 13.7899C94.4023 13.4221 94.1261 13.1303 93.7869 12.9146C93.4477 12.699 93.0894 12.5277 92.7128 12.4009C92.3362 12.274 91.9779 12.1662 91.6393 12.0774C91.3001 11.9886 91.0239 11.8871 90.81 11.7729C90.5968 11.6588 90.4898 11.5066 90.4898 11.3163C90.4898 11.1387 90.5718 11.0055 90.7346 10.9167C90.898 10.8152 91.1427 10.7645 91.4694 10.7645C91.8086 10.7645 92.1538 10.8343 92.5055 10.9738C92.8696 11.1133 93.1964 11.3544 93.4851 11.6969L95.1241 10.0225C94.71 9.48965 94.17 9.09005 93.5041 8.82371C92.8512 8.54465 92.1354 8.40509 91.3566 8.40509C90.6158 8.40509 89.9688 8.53193 89.4164 8.78561C88.8633 9.03935 88.4362 9.38819 88.135 9.83213C87.8338 10.2634 87.6829 10.7772 87.6829 11.3734C87.6829 11.9315 87.7898 12.3946 88.0031 12.7624C88.2164 13.1176 88.4932 13.3967 88.8318 13.5996C89.171 13.8026 89.5292 13.9612 89.9059 14.0753C90.2825 14.1895 90.6407 14.2973 90.9799 14.3988C91.3185 14.4876 91.5954 14.5954 91.8086 14.7223C92.035 14.8364 92.1479 15.0077 92.1479 15.236C92.1479 15.4136 92.0534 15.5531 91.8651 15.6546C91.6892 15.7561 91.432 15.8068 91.0928 15.8068C90.6027 15.8068 90.1506 15.718 89.7366 15.5404C89.3219 15.3502 88.9637 15.0901 88.6625 14.7603L87.0235 16.4347C87.3378 16.7772 87.7144 17.0817 88.154 17.348C88.6061 17.6017 89.0896 17.7983 89.6047 17.9379Z" fill="#524D48"/>
<path d="M100.192 18.1282C99.3508 18.1282 98.6035 17.9569 97.9506 17.6144C97.3096 17.2592 96.8077 16.7772 96.4435 16.1683C96.0788 15.5468 95.897 14.8364 95.897 14.0372V8.67151H98.7794V13.9992C98.7794 14.3163 98.8293 14.5891 98.9302 14.8174C99.0431 15.0457 99.2065 15.2233 99.4197 15.3502C99.6336 15.477 99.8908 15.5404 100.192 15.5404C100.619 15.5404 100.958 15.4072 101.21 15.1408C101.461 14.8618 101.586 14.4812 101.586 13.9992V8.67151H104.469V14.0182C104.469 14.8301 104.287 15.5468 103.922 16.1683C103.558 16.7772 103.056 17.2592 102.415 17.6144C101.775 17.9569 101.034 18.1282 100.192 18.1282Z" fill="#524D48"/>
<path d="M108.784 8.67152H105.902V17.9189H108.784V12.5151C108.784 12.198 108.847 11.9316 108.972 11.7159C109.111 11.5003 109.293 11.3353 109.519 11.2212C109.745 11.0943 110.002 11.0309 110.291 11.0309C110.706 11.0309 111.051 11.1641 111.327 11.4305C111.616 11.6842 111.761 12.0457 111.761 12.5151V17.9189H114.643V12.5151C114.643 12.198 114.706 11.9316 114.831 11.7159C114.97 11.5003 115.152 11.3353 115.378 11.2212C115.604 11.0943 115.862 11.0309 116.15 11.0309C116.565 11.0309 116.91 11.1641 117.186 11.4305C117.475 11.6842 117.619 12.0457 117.619 12.5151V17.9189H120.502V12.1916C120.502 11.4178 120.339 10.7582 120.012 10.2127C119.698 9.65456 119.265 9.22964 118.712 8.93792C118.172 8.63342 117.55 8.4812 116.847 8.4812C116.131 8.4812 115.484 8.63978 114.907 8.95694C114.531 9.15896 114.204 9.41972 113.923 9.73916C113.661 9.40502 113.342 9.1316 112.966 8.91884C112.464 8.62712 111.893 8.4812 111.252 8.4812C110.574 8.4812 109.965 8.62712 109.425 8.91884C109.19 9.04022 108.976 9.1856 108.784 9.35498V8.67152Z" fill="#524D48"/>
</g>
<defs>
<clipPath id="clip0_81_1037">
<rect width="120" height="24" fill="white" transform="translate(0.765503)"/>
</clipPath>
</defs>
</svg>
