<svg width="62" height="47" viewBox="0 0 62 47" fill="none" xmlns="http://www.w3.org/2000/svg">
<path d="M46.8908 0C49.5537 0 51.8114 0.58025 53.6639 1.74075C55.6321 2.78519 57.253 4.17779 58.5266 5.91852C59.8002 7.77531 60.6685 9.92222 61.1317 12.3593C61.7106 14.7963 62 17.1753 62 19.4963C62 25.1827 60.4949 30.463 57.4846 35.337C54.5901 40.2111 50.0747 44.0988 43.9384 47L42.3754 43.8667C45.733 42.358 48.6275 40.1531 51.0588 37.2519C53.606 34.2346 55.0532 31.1012 55.4006 27.8519C55.8637 25.763 55.8637 23.7901 55.4006 21.9333C53.085 24.2543 50.0747 25.4148 46.3697 25.4148C42.7806 25.4148 39.7703 24.3123 37.3389 22.1074C34.9076 19.9025 33.6919 16.7691 33.6919 12.7074C33.6919 8.99383 34.9076 5.97654 37.3389 3.65556C39.8861 1.21852 43.07 0 46.8908 0ZM13.1989 0C15.8618 0 18.1195 0.58025 19.972 1.74075C21.9402 2.78519 23.5612 4.17779 24.8347 5.91852C26.1083 7.77531 26.9767 9.92222 27.4398 12.3593C28.0187 14.7963 28.3081 17.1753 28.3081 19.4963C28.3081 25.1827 26.803 30.463 23.7927 35.337C20.8982 40.2111 16.3828 44.0988 10.2465 47L8.68347 43.8667C12.0411 42.358 14.9356 40.1531 17.3669 37.2519C19.9141 34.2346 21.3613 31.1012 21.7087 27.8519C22.1718 25.763 22.1718 23.7901 21.7087 21.9333C19.3931 24.2543 16.3828 25.4148 12.6779 25.4148C9.0887 25.4148 6.07843 24.3123 3.64706 22.1074C1.21569 19.9025 0 16.7691 0 12.7074C0 8.99383 1.21569 5.97654 3.64706 3.65556C6.19421 1.21852 9.37815 0 13.1989 0Z" fill="#D99E4B"/>
</svg>
