<svg width="60" height="60" viewBox="0 0 60 60" fill="none" xmlns="http://www.w3.org/2000/svg">
<path d="M51.5056 37.2447C53.7663 39.9259 53.4252 43.9449 50.7441 46.2055C48.0656 48.4662 44.0465 48.1278 41.786 45.4466C40.6913 44.1484 40.1652 42.5011 40.3106 40.8088C40.456 39.1166 41.2492 37.583 42.5475 36.4857L42.5502 36.483C43.7083 35.5047 45.1414 34.9811 46.6407 34.9811C46.8231 34.9811 47.0029 34.9891 47.188 35.0049C48.8723 35.1503 50.4083 35.9438 51.5056 37.2447ZM47.7351 41.3458L49.2739 39.8069C49.5754 39.5055 49.5754 39.019 49.2766 38.7175C48.9751 38.4161 48.4886 38.4161 48.1872 38.7149L46.6457 40.2564L45.1042 38.7149C44.8027 38.4135 44.3162 38.4135 44.0148 38.7175C43.7134 39.019 43.7134 39.5055 44.0148 39.8069L45.5536 41.3458L44.0148 42.8847C43.7134 43.1861 43.7134 43.6726 44.0148 43.974C44.1655 44.1248 44.3612 44.2015 44.5595 44.2015C44.7551 44.2015 44.9534 44.1274 45.1042 43.9767L46.6457 42.4352L48.1872 43.9767C48.3379 44.1274 48.5362 44.2015 48.7319 44.2015C48.9302 44.2015 49.1258 44.1274 49.2792 43.974C49.5806 43.6726 49.5806 43.1861 49.2765 42.8847L47.7351 41.3458ZM36.7592 42.5674H38.8375C38.7423 41.9487 38.7185 41.3167 38.774 40.6768C38.8692 39.5451 39.2023 38.469 39.7391 37.5039L36.7619 35.69L36.7566 42.5673L36.7592 42.5674ZM42.1294 47.8266H6V50H48.0895V49.1089C47.6136 49.1988 47.1297 49.2438 46.6484 49.2438C45.0567 49.2411 43.4726 48.7626 42.1294 47.8266ZM24.369 42.5674H29.718V36.0522L24.369 37.1469V42.5674ZM9.72835 46.285H40.4825C39.951 45.6187 39.5307 44.8863 39.2398 44.109H9.72842L9.72835 46.285ZM11.9811 42.5674H17.3302L17.3328 37.7471L13.7156 38.5985C13.5702 38.6329 13.4195 38.625 13.2793 38.5721L11.9837 38.1067V42.5673L11.9811 42.5674ZM18.4778 31.3566L18.0521 27.5199L12.7347 28.1096L13.2345 32.6231L14.464 32.6179L18.4778 31.3566ZM30.3736 26.153L25.0562 26.7426L25.5295 30.6136L30.7305 28.9795L30.3736 26.153ZM43.1846 29.4713L42.6769 24.7859L37.3595 25.3755L37.7746 29.1936L41.5399 30.1825L43.1846 29.4713ZM10.6779 25.3385C10.67 25.3412 10.6647 25.3385 10.6594 25.3412L10.1649 25.394L10.3236 26.8272L11.7726 26.6659C11.7805 26.6632 11.7884 26.6632 11.799 26.6606C11.8069 26.6579 11.8175 26.6579 11.8254 26.6579L18.6289 25.9043C18.6369 25.9017 18.6422 25.9017 18.6501 25.9017C18.658 25.8991 18.6633 25.9017 18.6712 25.8991L24.0785 25.2988C24.0864 25.2962 24.0944 25.2962 24.1023 25.2936C24.1155 25.2909 24.1261 25.2909 24.1393 25.2909L30.9239 24.5373C30.9318 24.5347 30.9397 24.5347 30.9477 24.532C30.9609 24.5294 30.9741 24.5294 30.9873 24.5294L44.7473 23.0037L44.5887 21.5759L10.6964 25.3332L10.6779 25.3385ZM10.9688 20.9678L25.8815 10L34.3583 13.7177L42.833 17.4327L43.1398 20.1879L11.2728 23.7205L10.9688 20.9678ZM23.9571 15.9386C24.0073 16.4066 24.2188 16.8297 24.5494 17.1311C24.8772 17.4299 25.3003 17.5912 25.7604 17.5912C25.8344 17.5912 25.9111 17.5859 25.9851 17.578L27.2438 17.4405C27.2623 17.4378 27.2808 17.4352 27.2993 17.4325L27.4447 17.4167C27.6007 17.4008 27.6615 17.4511 27.7012 17.5039C27.7779 17.6071 27.7964 17.7789 27.7462 17.8979C27.7197 17.9587 27.6721 18.0196 27.5108 18.0381L26.7837 18.1174H26.7811C26.7784 18.1174 26.7784 18.12 26.7784 18.12L24.991 18.3183C24.5679 18.3659 24.2639 18.7467 24.3088 19.1697C24.3538 19.5637 24.6869 19.8546 25.073 19.8546C25.1021 19.8546 25.1311 19.8519 25.1602 19.8493L26.1835 19.7329L26.2311 20.1771C26.276 20.5711 26.6092 20.8646 26.9979 20.8646C27.0243 20.8646 27.0534 20.862 27.0851 20.8593C27.5082 20.8117 27.8123 20.431 27.7673 20.0079L27.7171 19.5637C28.3755 19.4791 28.899 19.0983 29.1528 18.5166C29.4252 17.8926 29.3406 17.1363 28.9387 16.589C28.5553 16.0655 27.9471 15.809 27.2702 15.883L26.009 16.0231C26.0063 16.0258 26.0063 16.0258 26.0037 16.0258L25.816 16.0443C25.7419 16.0522 25.5225 16.0787 25.4881 15.7693C25.4537 15.4599 25.6758 15.4335 25.7472 15.4256L26.4347 15.3489C26.4479 15.3489 26.4585 15.3489 26.4717 15.3462C26.4849 15.3436 26.4981 15.3409 26.514 15.3383L28.2617 15.1453C28.6848 15.0977 28.9889 14.7169 28.9439 14.2939C28.8963 13.8708 28.5156 13.5668 28.0925 13.6117L27.0693 13.7254L27.0217 13.2865C26.9767 12.8634 26.596 12.5567 26.1729 12.6043C25.7498 12.6492 25.4431 13.03 25.4907 13.4531L25.5383 13.8973C25.0095 13.966 24.56 14.2278 24.2744 14.6403C24.0179 15.0105 23.9042 15.4706 23.9571 15.9386Z" fill="#D99E4B"/>
</svg>
