<svg width="144" height="37" viewBox="0 0 144 37" fill="none" xmlns="http://www.w3.org/2000/svg">
<path d="M34.2435 10.2707V7.34977L43.8222 4.12578L43.5468 2.5L33.0437 6.02711V10.9595C33.0437 13.7978 32.0799 16.5258 30.467 18.2618C29.6016 19.1987 29.0902 20.6591 29.0902 22.1746V24.4893C29.0902 25.6742 28.6378 26.7213 27.8904 27.2724L26.2382 28.4573V11.3178H29.2082C29.7786 11.3178 30.2507 11.9791 30.2507 12.7782V12.9987C30.2507 13.7978 29.7786 14.4591 29.2082 14.4591C28.6378 14.4591 28.1658 13.7978 28.1658 12.9987V12.7231H26.966V12.9987C26.966 14.7347 27.9691 16.14 29.2082 16.14C30.4474 16.14 31.4505 14.7347 31.4505 12.9987V12.7782C31.4505 11.0422 30.4474 9.63688 29.2082 9.63688H14.614C13.3748 9.63688 12.3717 11.0422 12.3717 12.7782V12.9987C12.3717 14.7347 13.3748 16.14 14.614 16.14C15.8531 16.14 16.8562 14.7347 16.8562 12.9987V12.7231H15.6564V12.9987C15.6564 13.7978 15.1844 14.4591 14.614 14.4591C14.0436 14.4591 13.5715 13.7978 13.5715 12.9987V12.7782C13.5715 11.9791 14.0436 11.3178 14.614 11.3178H17.584V28.4849L15.9318 27.3C15.1844 26.7489 14.732 25.7018 14.732 24.5169V22.2022C14.732 20.6866 14.2206 19.1987 13.3551 18.2893C11.7423 16.5533 10.7785 13.7978 10.7785 10.9595V6.02711L0.275364 2.5L0 4.12578L9.57873 7.34977V10.2707L2.95033 8.03866L2.67496 9.66444L9.61807 12.0067C9.69674 13.0813 9.87376 14.1284 10.1688 15.1204L5.62529 13.6049L5.34993 15.2307L10.9359 17.1044C11.4079 18.0689 11.9587 18.9231 12.6274 19.612C13.1978 20.2182 13.5518 21.1826 13.5518 22.2022V24.5169C13.5518 26.308 14.2599 27.9613 15.4007 28.788L21.9111 33.5L28.4215 28.788C29.5623 27.9613 30.2704 26.3355 30.2704 24.5169V22.2022C30.2704 21.1826 30.6047 20.2182 31.1948 19.612C31.8635 18.8955 32.4339 18.0413 32.8863 17.1044L38.4723 15.2307L38.1969 13.6049L33.6534 15.1204C33.9484 14.1284 34.1255 13.0813 34.2041 12.0067L41.1472 9.66444L40.8719 8.03866L34.2435 10.2707ZM25.0188 29.3391L23.9173 30.1382V11.3178H25.0188V29.3391ZM18.7837 11.3178H19.8852V30.1382L18.7837 29.3391V11.3178ZM21.085 30.9924V11.3178H22.7372V30.9924L21.9111 31.5986L21.085 30.9924Z" fill="#D99E4B"/>
<path d="M29.1886 6.22003H14.614V7.90092H29.1886V6.22003Z" fill="#D99E4B"/>
<path d="M49.1584 36.1727V35.5693C49.9831 35.529 50.6872 35.3077 51.2706 34.9054C51.874 34.5031 52.3267 33.8192 52.6284 32.8536C52.9301 31.888 53.081 30.5704 53.081 28.9008V12.3352C53.081 11.5909 53.0207 11.0477 52.9 10.7058C52.7994 10.3437 52.5781 10.1023 52.2361 9.98157C51.8942 9.84076 51.4013 9.7603 50.7576 9.74018V9.1367C51.2203 9.15681 51.8338 9.17693 52.5982 9.19704C53.3828 9.21716 54.1975 9.22722 55.0423 9.22722C55.8872 9.22722 56.712 9.21716 57.5166 9.19704C58.3414 9.17693 59.0153 9.15681 59.5383 9.1367V9.74018C58.8745 9.7603 58.3715 9.84076 58.0296 9.98157C57.7077 10.1023 57.4864 10.3437 57.3657 10.7058C57.2652 11.0477 57.2149 11.5909 57.2149 12.3352V23.3789C57.2149 24.2037 57.2048 25.0988 57.1847 26.0644C57.1847 27.03 57.1445 27.9654 57.064 28.8706C57.0037 29.7758 56.883 30.5704 56.7019 31.2544C56.3197 32.6625 55.4949 33.8292 54.2276 34.7546C52.9603 35.7 51.2706 36.1727 49.1584 36.1727ZM75.3764 14.568V27.2412C75.3764 28.1464 75.5273 28.8203 75.829 29.2629C76.1308 29.6853 76.6638 29.8965 77.4283 29.8965V30.5302C76.8047 30.4698 76.1811 30.4397 75.5575 30.4397C74.8132 30.4397 74.099 30.4698 73.4151 30.5302C72.7513 30.5905 72.1377 30.7012 71.5745 30.8621V27.8447C71.0716 28.9511 70.3776 29.7456 69.4925 30.2284C68.6275 30.6911 67.6921 30.9224 66.6863 30.9224C65.9017 30.9224 65.2379 30.8118 64.6948 30.5905C64.1717 30.3894 63.7493 30.1077 63.4274 29.7456C63.0855 29.3634 62.8441 28.8605 62.7033 28.2369C62.5625 27.6133 62.492 26.8087 62.492 25.823V18.1889C62.492 17.2837 62.3412 16.6199 62.0394 16.1974C61.7578 15.7549 61.2247 15.5336 60.4402 15.5336V14.9C61.0839 14.9603 61.7075 14.9905 62.311 14.9905C63.0553 14.9905 63.7594 14.9603 64.4232 14.9C65.1071 14.8195 65.7307 14.7089 66.294 14.568V26.8791C66.294 27.4222 66.3342 27.905 66.4147 28.3275C66.5153 28.7499 66.7064 29.0919 66.988 29.3534C67.2696 29.5948 67.6921 29.7155 68.2553 29.7155C68.8789 29.7155 69.4422 29.5344 69.9451 29.1723C70.448 28.8102 70.8402 28.3174 71.1219 27.6938C71.4236 27.0702 71.5745 26.3661 71.5745 25.5816V18.1889C71.5745 17.2837 71.4236 16.6199 71.1219 16.1974C70.8402 15.7549 70.3072 15.5336 69.5226 15.5336V14.9C70.1663 14.9603 70.7899 14.9905 71.3934 14.9905C72.1377 14.9905 72.8418 14.9603 73.5056 14.9C74.1896 14.8195 74.8132 14.7089 75.3764 14.568ZM84.5699 14.4775C85.4147 14.4775 86.1389 14.5982 86.7424 14.8396C87.3459 15.081 87.7884 15.2922 88.0701 15.4733C88.754 15.9762 89.1664 15.6543 89.3072 14.5077H89.971C89.9308 15.0911 89.9006 15.7851 89.8805 16.5897C89.8604 17.3742 89.8503 18.4303 89.8503 19.758H89.1865C89.0859 19.0137 88.8948 18.2895 88.6132 17.5855C88.3316 16.8814 87.9192 16.298 87.3761 15.8354C86.8329 15.3526 86.1188 15.1112 85.2337 15.1112C84.6101 15.1112 84.0871 15.2922 83.6646 15.6543C83.2623 16.0164 83.0612 16.5294 83.0612 17.1932C83.0612 17.7967 83.2422 18.3298 83.6043 18.7924C83.9664 19.235 84.4291 19.6574 84.9923 20.0597C85.5757 20.4419 86.1792 20.8644 86.8028 21.3271C87.5269 21.8098 88.1707 22.3027 88.7339 22.8056C89.2972 23.2884 89.7498 23.8315 90.0917 24.435C90.4337 25.0184 90.6047 25.7124 90.6047 26.517C90.6047 27.4424 90.3432 28.2369 89.8202 28.9008C89.3173 29.5445 88.6434 30.0474 87.7985 30.4095C86.9737 30.7515 86.0585 30.9224 85.0527 30.9224C84.5095 30.9224 84.0167 30.8721 83.5741 30.7716C83.1316 30.671 82.7393 30.5402 82.3973 30.3793C82.1358 30.2385 81.8944 30.1077 81.6731 29.987C81.472 29.8663 81.2608 29.7658 81.0395 29.6853C80.8383 29.5847 80.6573 29.6249 80.4964 29.806C80.3555 29.987 80.2449 30.2888 80.1644 30.7112H79.5006C79.5408 30.0675 79.571 29.283 79.5911 28.3576C79.6112 27.4323 79.6213 26.2052 79.6213 24.6764H80.2851C80.426 25.7828 80.6372 26.7584 80.9188 27.6033C81.2205 28.428 81.653 29.0818 82.2163 29.5646C82.7795 30.0273 83.5037 30.2586 84.3888 30.2586C84.771 30.2586 85.1331 30.1781 85.4751 30.0172C85.8372 29.8563 86.1289 29.6048 86.3501 29.2629C86.5915 28.9209 86.7122 28.4582 86.7122 27.8748C86.7122 26.9897 86.4105 26.2555 85.807 25.6721C85.2035 25.0888 84.4492 24.4652 83.5439 23.8013C82.86 23.2984 82.2163 22.8056 81.6128 22.3228C81.0294 21.84 80.5466 21.2969 80.1644 20.6934C79.8024 20.0899 79.6213 19.3758 79.6213 18.551C79.6213 17.6458 79.8526 16.9015 80.3153 16.3181C80.778 15.7147 81.3815 15.2621 82.1258 14.9603C82.8902 14.6385 83.7049 14.4775 84.5699 14.4775ZM98.3001 9.9514V14.9301H102.162V15.5336H98.3001V27.5429C98.3001 28.2671 98.4308 28.7801 98.6923 29.0818C98.9538 29.3836 99.326 29.5344 99.8088 29.5344C100.271 29.5344 100.694 29.3634 101.076 29.0215C101.458 28.6594 101.8 28.066 102.102 27.2412L102.645 27.4826C102.343 28.4683 101.871 29.293 101.227 29.9569C100.603 30.6006 99.7182 30.9224 98.5716 30.9224C97.8877 30.9224 97.3043 30.8319 96.8215 30.6509C96.3588 30.4899 95.9565 30.2485 95.6146 29.9267C95.172 29.464 94.8703 28.9108 94.7093 28.2671C94.5685 27.6234 94.4981 26.7685 94.4981 25.7023V15.5336H91.8428V14.9301H94.4981V10.7359C95.2223 10.7158 95.8962 10.6454 96.5198 10.5247C97.1434 10.404 97.7368 10.2129 98.3001 9.9514ZM106.947 7.20555C107.671 7.20555 108.264 7.40671 108.727 7.80903C109.19 8.21136 109.421 8.74443 109.421 9.40826C109.421 10.0721 109.19 10.6052 108.727 11.0075C108.264 11.4098 107.671 11.611 106.947 11.611C106.223 11.611 105.629 11.4098 105.167 11.0075C104.704 10.6052 104.473 10.0721 104.473 9.40826C104.473 8.74443 104.704 8.21136 105.167 7.80903C105.629 7.40671 106.223 7.20555 106.947 7.20555ZM109.059 14.568V27.6938C109.059 28.5387 109.21 29.112 109.512 29.4137C109.833 29.7155 110.367 29.8663 111.111 29.8663V30.5C110.749 30.4799 110.196 30.4598 109.451 30.4397C108.707 30.3994 107.953 30.3793 107.188 30.3793C106.444 30.3793 105.69 30.3994 104.925 30.4397C104.161 30.4598 103.587 30.4799 103.205 30.5V29.8663C103.95 29.8663 104.473 29.7155 104.774 29.4137C105.096 29.112 105.257 28.5387 105.257 27.6938V18.2191C105.257 17.2938 105.106 16.6199 104.804 16.1974C104.523 15.7549 103.99 15.5336 103.205 15.5336V14.9C103.849 14.9603 104.473 14.9905 105.076 14.9905C105.82 14.9905 106.524 14.9603 107.188 14.9C107.872 14.8195 108.496 14.7089 109.059 14.568ZM116.682 30.7112C115.817 30.7112 115.082 30.5503 114.479 30.2284C113.875 29.8865 113.423 29.4338 113.121 28.8706C112.819 28.2872 112.668 27.6435 112.668 26.9394C112.668 26.0745 112.87 25.3704 113.272 24.8273C113.674 24.264 114.187 23.8215 114.811 23.4996C115.454 23.1576 116.128 22.876 116.832 22.6547C117.536 22.4133 118.2 22.192 118.824 21.9909C119.447 21.7696 119.96 21.5182 120.363 21.2365C120.765 20.9549 120.966 20.5828 120.966 20.1201V17.9174C120.966 17.2737 120.866 16.7506 120.665 16.3483C120.483 15.9259 120.202 15.6141 119.82 15.4129C119.458 15.1916 118.995 15.081 118.432 15.081C118.009 15.081 117.567 15.1414 117.104 15.2621C116.641 15.3827 116.259 15.6141 115.957 15.9561C116.48 16.0969 116.883 16.3584 117.164 16.7406C117.466 17.1228 117.617 17.5855 117.617 18.1286C117.617 18.7522 117.406 19.245 116.983 19.6071C116.581 19.9491 116.068 20.1201 115.444 20.1201C114.781 20.1201 114.278 19.9089 113.936 19.4864C113.594 19.064 113.423 18.5711 113.423 18.0079C113.423 17.4446 113.564 16.982 113.845 16.6199C114.127 16.2377 114.519 15.8957 115.022 15.594C115.525 15.252 116.169 14.9804 116.953 14.7793C117.738 14.5781 118.593 14.4775 119.518 14.4775C120.403 14.4775 121.188 14.5781 121.871 14.7793C122.555 14.9603 123.139 15.2922 123.622 15.775C124.104 16.2377 124.416 16.811 124.557 17.4949C124.698 18.1789 124.768 19.0137 124.768 19.9994V28.2671C124.768 28.77 124.829 29.1321 124.949 29.3534C125.07 29.5545 125.261 29.6551 125.523 29.6551C125.724 29.6551 125.915 29.6048 126.096 29.5043C126.277 29.4037 126.478 29.2629 126.699 29.0818L127.031 29.5948C126.589 29.9367 126.126 30.2083 125.643 30.4095C125.16 30.6106 124.577 30.7112 123.893 30.7112C123.189 30.7112 122.626 30.6106 122.203 30.4095C121.801 30.2083 121.499 29.9166 121.298 29.5344C121.117 29.1522 121.017 28.6996 120.996 28.1766C120.514 28.9812 119.92 29.6048 119.216 30.0474C118.512 30.4899 117.667 30.7112 116.682 30.7112ZM118.492 29.0215C118.975 29.0215 119.417 28.8907 119.82 28.6292C120.242 28.3677 120.624 27.9754 120.966 27.4524V21.3572C120.765 21.659 120.473 21.9305 120.091 22.1719C119.729 22.4133 119.337 22.6547 118.914 22.8961C118.492 23.1375 118.09 23.4191 117.707 23.741C117.345 24.0427 117.034 24.4249 116.772 24.8876C116.531 25.3302 116.41 25.9035 116.41 26.6075C116.41 27.3921 116.601 27.9955 116.983 28.418C117.365 28.8203 117.868 29.0215 118.492 29.0215ZM134.175 14.9V15.5336C133.793 15.5336 133.491 15.6241 133.27 15.8052C133.048 15.9862 133.038 16.2377 133.239 16.5595L141.236 28.3576C141.517 28.76 141.789 29.0919 142.05 29.3534C142.312 29.6149 142.624 29.7859 142.986 29.8663V30.5C142.704 30.4799 142.292 30.4598 141.748 30.4397C141.205 30.3994 140.662 30.3793 140.119 30.3793C139.415 30.3793 138.691 30.3994 137.947 30.4397C137.222 30.4598 136.679 30.4799 136.317 30.5V29.8663C136.719 29.8663 137.031 29.7758 137.253 29.5948C137.474 29.3936 137.474 29.1422 137.253 28.8404L129.256 17.0423C128.914 16.5193 128.623 16.1572 128.381 15.9561C128.14 15.7348 127.848 15.594 127.506 15.5336V14.9C127.808 14.9201 128.261 14.9503 128.864 14.9905C129.468 15.0106 130.051 15.0207 130.614 15.0207C131.298 15.0207 131.982 15.0106 132.666 14.9905C133.35 14.9503 133.853 14.9201 134.175 14.9ZM133.994 23.0168C133.994 23.0168 134.004 23.0772 134.024 23.1979C134.064 23.3186 134.104 23.4493 134.145 23.5901C134.185 23.7108 134.205 23.7712 134.205 23.7712L132.576 25.9135C131.992 26.6578 131.67 27.3217 131.61 27.905C131.57 28.4884 131.751 28.9511 132.153 29.293C132.555 29.635 133.109 29.8362 133.813 29.8965V30.5C133.451 30.4799 133.008 30.4698 132.485 30.4698C131.982 30.4497 131.489 30.4397 131.006 30.4397C130.524 30.4195 130.121 30.4095 129.8 30.4095C129.337 30.4095 128.924 30.4195 128.562 30.4397C128.22 30.4397 127.899 30.4598 127.597 30.5V29.8965C128.039 29.7758 128.472 29.5445 128.894 29.2025C129.317 28.8404 129.8 28.3174 130.343 27.6335L133.994 23.0168ZM142.201 14.9V15.5034C141.799 15.6241 141.366 15.8756 140.904 16.2578C140.441 16.6199 139.968 17.1228 139.485 17.7665L136.076 22.1719C136.076 22.1719 136.056 22.1116 136.015 21.9909C135.995 21.8501 135.965 21.7193 135.925 21.5986C135.905 21.4779 135.895 21.4176 135.895 21.4176L137.705 18.9735C138.208 18.3096 138.52 17.7263 138.641 17.2234C138.761 16.7205 138.681 16.3282 138.399 16.0466C138.118 15.7448 137.615 15.5638 136.89 15.5034V14.9C137.454 14.9201 137.987 14.9402 138.49 14.9603C139.013 14.9804 139.526 14.9905 140.029 14.9905C140.471 14.9905 140.863 14.9804 141.205 14.9603C141.567 14.9402 141.899 14.9201 142.201 14.9Z" fill="#1A140A"/>
</svg>
