<svg width="130" height="24" viewBox="0 0 130 24" fill="none" xmlns="http://www.w3.org/2000/svg">
<g clip-path="url(#clip0_81_1020)">
<path d="M72.905 17.7143H75.6772V7.16114H72.905V17.7143ZM72.905 5.51545H75.6772V3.00574H72.905V5.51545Z" fill="#524D48"/>
<path d="M77.4636 21.1703H80.2357V16.5211H80.2762C80.8671 17.4263 81.8254 18.0228 83.2926 18.0228C85.9833 18.0228 87.8179 15.8628 87.8179 12.448C87.8179 9.15653 86.0445 6.87311 83.2724 6.87311C81.8456 6.87311 80.8671 7.55201 80.1947 8.47769H80.1335V7.16111H77.4636V21.1703ZM82.7017 15.6983C81.0508 15.6983 80.1745 14.4434 80.1745 12.5303C80.1745 10.6377 80.8671 9.13601 82.6 9.13601C84.3122 9.13601 85.0048 10.5348 85.0048 12.5303C85.0048 14.5257 84.1083 15.6983 82.7017 15.6983Z" fill="#524D48"/>
<path d="M93.3473 18.0228C95.9566 18.0228 97.7502 16.7474 97.7502 14.6285C97.7502 12.16 95.8139 11.6663 94.0607 11.296C92.5727 10.9874 91.1869 10.9051 91.1869 10C91.1869 9.23885 91.9003 8.82743 92.9805 8.82743C94.163 8.82743 94.8764 9.23885 94.9983 10.3703H97.5052C97.3019 8.25143 95.7729 6.87311 93.0215 6.87311C90.6364 6.87311 88.7614 7.96343 88.7614 10.2468C88.7614 12.5508 90.596 13.0651 92.471 13.4354C93.8978 13.7234 95.2224 13.8263 95.2224 14.8343C95.2224 15.5748 94.5298 16.048 93.3069 16.048C92.0632 16.048 91.2071 15.5131 91.024 14.2994H88.4558C88.6187 16.5417 90.3106 18.0228 93.3473 18.0228Z" fill="#524D48"/>
<path d="M108.275 17.7143V7.16113H105.502V13.2503C105.502 14.6491 104.708 15.6366 103.403 15.6366C102.221 15.6366 101.671 14.9577 101.671 13.7235V7.16113H98.9189V14.1966C98.9189 16.5006 100.223 18.0023 102.547 18.0023C104.015 18.0023 104.83 17.4469 105.543 16.48H105.605V17.7143H108.275Z" fill="#524D48"/>
<path d="M110.068 17.7143H112.84V11.584C112.84 10.1851 113.594 9.28001 114.715 9.28001C115.734 9.28001 116.325 9.89711 116.325 11.0903V17.7143H119.097V11.584C119.097 10.1851 119.811 9.28001 120.972 9.28001C121.992 9.28001 122.583 9.89711 122.583 11.0903V17.7143H125.355V10.6171C125.355 8.31311 124.111 6.87311 121.91 6.87311C120.585 6.87311 119.484 7.57253 118.771 8.72453H118.731C118.221 7.61369 117.161 6.87311 115.836 6.87311C114.389 6.87311 113.37 7.61369 112.799 8.58053H112.738V7.16111H110.068V17.7143Z" fill="#524D48"/>
<path d="M0.655487 17.7143H3.42753V3.00574H0.655487V17.7143Z" fill="#524D48"/>
<path d="M10.2056 18.0228C13.4464 18.0228 15.6681 15.5954 15.6681 12.448C15.6681 9.30053 13.4464 6.87311 10.2056 6.87311C6.96471 6.87311 4.74301 9.30053 4.74301 12.448C4.74301 15.5954 6.96471 18.0228 10.2056 18.0228ZM10.2056 15.8834C8.49346 15.8834 7.55582 14.5051 7.55582 12.448C7.55582 10.3908 8.49346 8.99201 10.2056 8.99201C11.8974 8.99201 12.8553 10.3908 12.8553 12.448C12.8553 14.5051 11.8974 15.8834 10.2056 15.8834Z" fill="#524D48"/>
<path d="M21.5632 21.3143C23.1123 21.3143 24.4576 20.944 25.334 20.1211C26.1085 19.4011 26.5774 18.3931 26.5774 16.912V7.16111H23.9072V8.27201H23.8665C23.2346 7.38743 22.2766 6.87311 20.9721 6.87311C18.3224 6.87311 16.4472 8.88911 16.4472 12.0365C16.4472 15.2251 18.73 17.0765 21.0537 17.0765C22.3785 17.0765 23.1734 16.5417 23.7849 15.8423H23.8461V16.9943C23.8461 18.4343 23.0919 19.1954 21.5224 19.1954C20.2383 19.1954 19.6472 18.6811 19.423 18.0228H16.6713C16.9567 20.08 18.7096 21.3143 21.5632 21.3143ZM21.5224 14.8343C20.0956 14.8343 19.1581 13.7851 19.1581 11.9954C19.1581 10.2263 20.0956 9.11543 21.502 9.11543C23.1734 9.11543 23.9887 10.432 23.9887 11.9748C23.9887 13.5383 23.2753 14.8343 21.5224 14.8343Z" fill="#524D48"/>
<path d="M33.3152 18.0228C36.5561 18.0228 38.7778 15.5954 38.7778 12.448C38.7778 9.30053 36.5561 6.87311 33.3152 6.87311C30.0744 6.87311 27.8527 9.30053 27.8527 12.448C27.8527 15.5954 30.0744 18.0228 33.3152 18.0228ZM33.3152 15.8834C31.6031 15.8834 30.6655 14.5051 30.6655 12.448C30.6655 10.3908 31.6031 8.99201 33.3152 8.99201C35.007 8.99201 35.965 10.3908 35.965 12.448C35.965 14.5051 35.007 15.8834 33.3152 15.8834Z" fill="#524D48"/>
<path d="M126.362 5.42855C126.362 4.95516 126.743 4.57141 127.212 4.57141H128.91C129.379 4.57141 129.76 4.95516 129.76 5.42855C129.76 5.90194 129.379 6.2857 128.91 6.2857H127.212C126.743 6.2857 126.362 5.90194 126.362 5.42855Z" fill="#524D48"/>
<path fill-rule="evenodd" clip-rule="evenodd" d="M55.589 0C62.1554 0 67.4791 5.37259 67.4791 12C67.4791 18.6274 62.1554 24 55.589 24C49.0224 24 43.6991 18.6274 43.6991 12C43.6991 5.37259 49.0224 0 55.589 0ZM55.1592 0.897954C53.8028 1.09061 52.5112 2.19065 51.5085 4.03044C51.2177 4.5641 50.9553 5.15368 50.7267 5.79026C52.09 5.4445 53.5875 5.24065 55.1592 5.20912V0.897954ZM49.7217 6.07848C50.0061 5.17775 50.354 4.34904 50.7554 3.61239C51.2524 2.70035 51.8423 1.91277 52.5069 1.30786C48.893 2.36714 46.0445 5.24207 44.9949 8.88942C45.5943 8.21868 46.3746 7.62336 47.2783 7.12176C48.0082 6.71658 48.8293 6.36546 49.7217 6.07848ZM49.4362 7.09266C49.0936 8.46858 48.8916 9.98004 48.8604 11.5663H44.5887C44.7796 10.1972 45.8696 8.89368 47.6925 7.88184C48.2213 7.58832 48.8054 7.32348 49.4362 7.09266ZM49.7201 11.5663C49.7555 9.8352 50.0025 8.21004 50.411 6.77412C51.8338 6.3618 53.444 6.11256 55.1592 6.07674V7.95048C54.5194 9.60372 53.2143 10.9207 51.5762 11.5663H49.7201ZM48.8604 12.4337H44.5887C44.7796 13.8028 45.8696 15.1063 47.6925 16.1182C48.2213 16.4117 48.8054 16.6765 49.4362 16.9073C49.0936 15.5314 48.8916 14.02 48.8604 12.4337ZM50.411 17.2259C50.0025 15.79 49.7555 14.1648 49.7201 12.4337H51.5762C53.2143 13.0793 54.5194 14.3963 55.1592 16.0495V17.9233C53.444 17.8874 51.8338 17.6382 50.411 17.2259ZM49.7217 17.9215C48.8293 17.6345 48.0082 17.2834 47.2783 16.8782C46.3746 16.3766 45.5943 15.7813 44.9949 15.1106C46.0445 18.7579 48.893 21.6329 52.5069 22.6921C51.8423 22.0872 51.2524 21.2996 50.7554 20.3876C50.354 19.651 50.0061 18.8222 49.7217 17.9215ZM55.1592 23.102C53.8028 22.9094 52.5112 21.8093 51.5085 19.9696C51.2177 19.4359 50.9553 18.8463 50.7267 18.2098C52.09 18.5555 53.5875 18.7594 55.1592 18.7909V23.102ZM58.671 22.6921C59.3356 22.0872 59.9254 21.2996 60.4224 20.3876C60.8237 19.651 61.1721 18.8222 61.4562 17.9215C62.3486 17.6345 63.1696 17.2834 63.8996 16.8782C64.8032 16.3766 65.5838 15.7813 66.1831 15.1106C65.1332 18.7579 62.285 21.6329 58.671 22.6921ZM60.4515 18.2098C60.2226 18.8463 59.9599 19.4359 59.6692 19.9696C58.6667 21.8093 57.3751 22.9094 56.0187 23.102V18.7909C57.5903 18.7594 59.0879 18.5555 60.4515 18.2098ZM61.7416 16.9073C62.3723 16.6765 62.9567 16.4117 63.4852 16.1182C65.3086 15.1063 66.3983 13.8028 66.5891 12.4337H62.3177C62.2861 14.02 62.084 15.5314 61.7416 16.9073ZM61.458 12.4337C61.4223 14.1648 61.1756 15.79 60.7666 17.2259C59.3441 17.6382 57.7339 17.8874 56.0187 17.9233V16.0509C56.6584 14.3971 57.9637 13.0795 59.6022 12.4337H61.458ZM62.3177 11.5663H66.5891C66.3983 10.1972 65.3086 8.89368 63.4852 7.88184C62.9567 7.58832 62.3723 7.32348 61.7416 7.09266C62.084 8.46858 62.2861 9.98004 62.3177 11.5663ZM60.7666 6.77412C61.1756 8.21004 61.4223 9.8352 61.458 11.5663H59.6023C57.9637 10.9205 56.6584 9.60294 56.0187 7.9491V6.07674C57.7339 6.11256 59.3441 6.3618 60.7666 6.77412ZM61.4562 6.07848C62.3486 6.36546 63.1696 6.71658 63.8996 7.12176C64.8032 7.62336 65.5838 8.21868 66.1831 8.88942C65.1332 5.24207 62.285 2.36714 58.671 1.30786C59.3356 1.91277 59.9254 2.70035 60.4224 3.61239C60.8237 4.34904 61.1721 5.17775 61.4562 6.07848ZM56.0187 0.897954C57.3751 1.09061 58.6667 2.19065 59.6692 4.03044C59.9599 4.5641 60.2226 5.15368 60.4515 5.79026C59.0879 5.4445 57.5903 5.24065 56.0187 5.20912V0.897954Z" fill="#524D48"/>
</g>
<defs>
<clipPath id="clip0_81_1020">
<rect width="129.6" height="24" fill="white" transform="translate(0.165527)"/>
</clipPath>
</defs>
</svg>
