<svg width="89" height="19" viewBox="0 0 89 19" fill="none" xmlns="http://www.w3.org/2000/svg">
<g clip-path="url(#clip0_188_154)">
<path d="M8.6925 0.516932C4.12869 0.839625 0.486845 4.52754 0.256349 9.04521C0.118051 11.3963 0.90174 13.5168 2.23861 15.1764C3.94429 17.2508 6.57195 18.5877 9.47617 18.4955C14.2245 18.3572 18.0968 14.531 18.2351 9.7828C18.4194 4.52754 13.9939 0.19424 8.6925 0.516932ZM0.993936 9.50622C0.993936 4.94242 4.68188 1.25452 9.24572 1.25452C13.3946 1.25452 16.8521 4.34314 17.4053 8.30762C16.8521 6.97079 16.0223 6.2332 15.2847 5.86436C13.579 4.94242 11.2741 5.17292 9.06129 6.50979C8.92305 6.602 8.83079 6.74029 8.83079 6.87858C8.83079 7.10908 9.01521 7.2935 9.24572 7.2935C10.1677 7.33958 10.9053 7.84662 11.228 8.63034C11.5046 9.36793 11.3663 10.1977 10.9053 10.6587C10.5365 11.0275 10.0294 11.1658 9.43009 11.1658C8.73858 11.1197 8.04712 10.797 7.58617 10.2438C5.92657 8.30762 4.12869 7.98496 2.88401 8.35375C2.05422 8.63034 1.36273 9.18355 0.993936 10.0133C0.993936 9.82893 0.993936 9.69059 0.993936 9.50622ZM11.9194 8.35375C11.689 7.75446 11.2741 7.2935 10.767 6.97079C12.5649 6.87858 13.9017 7.52396 14.4549 8.86084C15.1003 10.336 14.5932 12.2721 13.3946 13.1019C12.1961 13.9317 10.4904 13.4707 8.73858 11.8112C9.01521 11.8573 9.2918 11.9034 9.56843 11.9034C10.5365 11.9034 11.1358 11.4885 11.4584 11.1658C12.1038 10.4743 12.3344 9.36793 11.9194 8.35375ZM9.24572 17.804C7.12516 17.804 5.18898 17.0203 3.75989 15.6835C3.0684 15.0842 2.79181 14.1161 3.0684 13.2402C3.2528 12.7792 3.4833 12.5026 3.80599 12.3643C4.86627 11.9495 6.52587 13.1019 8.27763 15.4991C8.60029 15.914 8.96913 16.2828 9.33788 16.5593C10.0755 17.1125 10.8592 17.3431 11.689 17.3431C11.7811 17.3431 11.8273 17.3431 11.9194 17.3431C11.0897 17.6196 10.2138 17.804 9.24572 17.804Z" fill="#D99E4B"/>
<path d="M24.3552 14.3641L22.2406 4.81445H24.2734L25.5694 11.281L27.4247 4.81445H29.2938L31.1491 11.2673L32.4451 4.81445H34.4097L32.3087 14.3641H30.2214L28.3388 7.70664L26.4289 14.3641H24.3552Z" fill="#D99E4B"/>
<path d="M37.8258 14.5002C37.1164 14.5002 36.4706 14.3365 35.8886 14.0091C35.3156 13.6817 34.8608 13.2406 34.5243 12.6858C34.1878 12.131 34.0195 11.508 34.0195 10.8167C34.0195 10.1256 34.1787 9.50254 34.497 8.94773C34.8245 8.39297 35.2655 7.95184 35.8203 7.62446C36.3752 7.29702 36.9936 7.1333 37.6757 7.1333C38.3578 7.1333 38.9626 7.30158 39.4902 7.63808C40.0176 7.97458 40.4315 8.42933 40.7316 9.00232C41.0408 9.57531 41.1955 10.2256 41.1955 10.9532V11.4443H35.9295C36.0114 11.7262 36.1432 11.9809 36.3251 12.2083C36.5161 12.4357 36.748 12.613 37.0209 12.7404C37.3028 12.8677 37.603 12.9313 37.9213 12.9313C38.2396 12.9313 38.5306 12.8813 38.7944 12.7813C39.0672 12.6812 39.2991 12.5402 39.4902 12.3583L40.718 13.477C40.2814 13.8318 39.8312 14.0909 39.3674 14.2546C38.9126 14.4184 38.3988 14.5002 37.8258 14.5002ZM35.9022 10.1073H39.3537C39.29 9.82542 39.1718 9.57987 38.999 9.37068C38.8353 9.15236 38.6352 8.98414 38.3988 8.8659C38.1714 8.73859 37.9167 8.67488 37.6348 8.67488C37.3437 8.67488 37.08 8.73403 36.8435 8.85228C36.607 8.97046 36.407 9.13874 36.2432 9.357C36.0886 9.56619 35.9749 9.8163 35.9022 10.1073Z" fill="#D99E4B"/>
<path d="M41.795 14.3634V4.81378L43.664 4.5V7.82877C44.2279 7.38308 44.8918 7.16027 45.6558 7.16027C46.3288 7.16027 46.9382 7.32399 47.4839 7.65137C48.0296 7.97881 48.4616 8.41994 48.7799 8.97469C49.1073 9.52039 49.271 10.1343 49.271 10.8164C49.271 11.4985 49.1073 12.117 48.7799 12.6718C48.4525 13.2175 48.0114 13.654 47.4566 13.9815C46.9018 14.2998 46.2834 14.459 45.6012 14.459C45.2465 14.459 44.9009 14.4089 44.5644 14.3089C44.2279 14.2088 43.9187 14.0633 43.6367 13.8723V14.3634H41.795ZM45.3556 12.8765C45.7467 12.8765 46.0969 12.7855 46.4061 12.6036C46.7244 12.4217 46.9745 12.1761 47.1564 11.8669C47.3383 11.5577 47.4293 11.2075 47.4293 10.8164C47.4293 10.4253 47.3383 10.0752 47.1564 9.76594C46.9745 9.44762 46.7244 9.20207 46.4061 9.02929C46.0969 8.84739 45.7467 8.75644 45.3556 8.75644C45.0101 8.75644 44.6917 8.81553 44.4007 8.93378C44.1188 9.04291 43.8732 9.21119 43.664 9.43856V12.208C43.8641 12.4171 44.1096 12.5809 44.4007 12.6991C44.7008 12.8173 45.0191 12.8765 45.3556 12.8765Z" fill="#D99E4B"/>
<path d="M54.9266 14.4997C54.2172 14.4997 53.5579 14.3769 52.9485 14.1313C52.3391 13.8767 51.8025 13.5266 51.3387 13.0809C50.8839 12.6261 50.5247 12.1032 50.261 11.512C50.0063 10.9118 49.8789 10.266 49.8789 9.57483C49.8789 8.88359 50.0063 8.24238 50.261 7.65121C50.5247 7.05098 50.8839 6.52802 51.3387 6.08234C51.8025 5.62759 52.3391 5.27747 52.9485 5.03189C53.5579 4.77723 54.2172 4.6499 54.9266 4.6499C55.636 4.6499 56.2954 4.77723 56.9047 5.03189C57.523 5.27747 58.0598 5.62759 58.5145 6.08234C58.9784 6.52802 59.3377 7.05098 59.5924 7.65121C59.8472 8.24238 59.9742 8.88359 59.9742 9.57483C59.9742 10.266 59.8472 10.9118 59.5924 11.512C59.3377 12.1032 58.9784 12.6261 58.5145 13.0809C58.0598 13.5266 57.523 13.8767 56.9047 14.1313C56.2954 14.3769 55.636 14.4997 54.9266 14.4997ZM54.9266 12.6853C55.3632 12.6853 55.7634 12.6079 56.1272 12.4533C56.491 12.2896 56.8093 12.0714 57.0822 11.7985C57.3552 11.5166 57.5686 11.1846 57.7236 10.8026C57.878 10.4206 57.9552 10.0113 57.9552 9.57483C57.9552 9.12914 57.878 8.71987 57.7236 8.34701C57.5686 7.96497 57.3552 7.63759 57.0822 7.36475C56.8093 7.08278 56.491 6.86452 56.1272 6.70992C55.7634 6.5462 55.3632 6.46431 54.9266 6.46431C54.4992 6.46431 54.1036 6.5462 53.7398 6.70992C53.376 6.86452 53.0576 7.08278 52.7848 7.36475C52.512 7.63759 52.2982 7.96497 52.1436 8.34701C51.989 8.71987 51.9117 9.12458 51.9117 9.56115C51.9117 10.0068 51.989 10.4206 52.1436 10.8026C52.2982 11.1846 52.512 11.5166 52.7848 11.7985C53.0576 12.0714 53.376 12.2896 53.7398 12.4533C54.1036 12.6079 54.4992 12.6853 54.9266 12.6853Z" fill="#D99E4B"/>
<path d="M64.0738 14.486C63.3734 14.486 62.7411 14.3269 62.1776 14.0086C61.6134 13.6811 61.1678 13.24 60.8407 12.6852C60.513 12.1214 60.3495 11.4938 60.3495 10.8026C60.3495 10.1022 60.513 9.47471 60.8407 8.9199C61.1678 8.36514 61.6134 7.92401 62.1776 7.59663C62.7411 7.26919 63.3734 7.10547 64.0738 7.10547C64.6373 7.10547 65.1741 7.2146 65.6836 7.43291C66.2016 7.65116 66.6478 7.96493 67.0205 8.3742L65.8745 9.5884C65.6107 9.29737 65.3334 9.08362 65.0422 8.94719C64.7601 8.80171 64.4513 8.72894 64.1145 8.72894C63.7509 8.72894 63.4233 8.81989 63.132 9.00179C62.8506 9.18368 62.6232 9.42924 62.4499 9.73844C62.2864 10.0477 62.2049 10.4024 62.2049 10.8026C62.2049 11.1846 62.2864 11.5347 62.4499 11.853C62.6232 12.1623 62.8597 12.4078 63.1594 12.5897C63.4597 12.7625 63.7917 12.849 64.1552 12.849C64.4738 12.849 64.7693 12.7852 65.0422 12.6579C65.3243 12.5215 65.5924 12.3214 65.8471 12.0576L66.9658 13.2309C66.6022 13.622 66.1657 13.9312 65.6563 14.1586C65.1468 14.3769 64.6191 14.486 64.0738 14.486Z" fill="#D99E4B"/>
<path d="M70.6705 14.4865C69.961 14.4865 69.3153 14.3228 68.7335 13.9954C68.1602 13.668 67.7055 13.2269 67.3693 12.672C67.0325 12.1173 66.8647 11.4943 66.8647 10.8031C66.8647 10.1118 67.0234 9.48881 67.3419 8.93405C67.6696 8.37924 68.1104 7.93817 68.6654 7.61073C69.2199 7.28329 69.8382 7.11963 70.5203 7.11963C71.2024 7.11963 71.8073 7.28785 72.335 7.62435C72.8627 7.96091 73.2761 8.41566 73.5765 8.98859C73.8859 9.56158 74.0403 10.2119 74.0403 10.9395V11.4306H68.7743C68.8563 11.7126 68.9883 11.9672 69.17 12.1946C69.3609 12.4219 69.5932 12.5993 69.8655 12.7266C70.1476 12.8539 70.4479 12.9176 70.7659 12.9176C71.0845 12.9176 71.3757 12.8676 71.6395 12.7675C71.9119 12.6675 72.1441 12.5266 72.335 12.3447L73.5631 13.4633C73.1266 13.818 72.6761 14.0773 72.2122 14.2409C71.7575 14.4046 71.2438 14.4865 70.6705 14.4865ZM68.7469 10.0937H72.1988C72.135 9.81169 72.0165 9.56614 71.8438 9.35695C71.6803 9.13869 71.4802 8.97041 71.2437 8.85216C71.0164 8.72486 70.7616 8.66121 70.4796 8.66121C70.1883 8.66121 69.9251 8.7203 69.6886 8.83855C69.4521 8.95679 69.2521 9.12501 69.088 9.34333C68.9335 9.55252 68.8199 9.80263 68.7469 10.0937Z" fill="#D99E4B"/>
<path d="M76.8643 14.4724C76.3554 14.4724 75.9049 14.3814 75.514 14.1995C75.1225 14.0086 74.8179 13.7493 74.5997 13.4219C74.3814 13.0945 74.2726 12.717 74.2726 12.2896C74.2726 11.6075 74.5273 11.0799 75.0362 10.7071C75.5548 10.3251 76.2642 10.1341 77.1646 10.1341C77.7829 10.1341 78.3653 10.2296 78.9106 10.4206V9.90216C78.9106 9.49289 78.7836 9.18368 78.5289 8.97449C78.2741 8.76529 77.9014 8.66073 77.4102 8.66073C77.1099 8.66073 76.7871 8.71076 76.4418 8.81077C76.0958 8.90172 75.6958 9.04726 75.2411 9.24734L74.5589 7.86948C75.1225 7.61481 75.6593 7.42379 76.1688 7.29649C76.6874 7.16912 77.2054 7.10547 77.7239 7.10547C78.679 7.10547 79.4201 7.3374 79.9478 7.80127C80.484 8.25601 80.7527 8.90172 80.7527 9.73844V14.3496H78.9106V13.8448C78.62 14.0631 78.3057 14.2223 77.9695 14.3223C77.6327 14.4223 77.2649 14.4724 76.8643 14.4724ZM76.046 12.2487C76.046 12.5215 76.1639 12.7398 76.4004 12.9035C76.6369 13.0581 76.9506 13.1354 77.3421 13.1354C77.651 13.1354 77.9379 13.0991 78.2012 13.0263C78.465 12.9444 78.7015 12.8262 78.9106 12.6716V11.6348C78.6833 11.5438 78.4468 11.4756 78.2012 11.4301C77.9556 11.3846 77.6923 11.3619 77.4102 11.3619C76.9828 11.3619 76.646 11.4437 76.4004 11.6075C76.1639 11.7621 76.046 11.9758 76.046 12.2487Z" fill="#D99E4B"/>
<path d="M81.6215 14.3496V7.24189H83.4903V7.8285C84.0271 7.34652 84.691 7.10547 85.4819 7.10547C86.037 7.10547 86.5234 7.22827 86.9416 7.47383C87.3696 7.71032 87.7016 8.04226 87.9381 8.46971C88.1739 8.8881 88.2925 9.3792 88.2925 9.94308V14.3496H86.4237V10.2159C86.4237 9.75212 86.2917 9.38832 86.0279 9.12453C85.764 8.85168 85.4047 8.71526 84.95 8.71526C84.632 8.71526 84.3499 8.77897 84.1043 8.90628C83.8587 9.02452 83.6538 9.1973 83.4903 9.42468V14.3496H81.6215Z" fill="#D99E4B"/>
</g>
<defs>
<clipPath id="clip0_188_154">
<rect width="88.0519" height="18" fill="white" transform="translate(0.240631 0.5)"/>
</clipPath>
</defs>
</svg>
