<svg width="107" height="24" viewBox="0 0 107 24" fill="none" xmlns="http://www.w3.org/2000/svg">
<path fill-rule="evenodd" clip-rule="evenodd" d="M20.6151 15.6C20.0165 15.6 19.4424 15.3629 19.0191 14.941C18.5958 14.519 18.358 13.9467 18.358 13.35V3H13.8439V13.35C13.8439 17.0778 16.8756 20.1 20.6151 20.1H25.5806V15.6H20.6151ZM34.1574 7.5C33.6239 7.5 33.0956 7.60476 32.6027 7.80829C32.1098 8.01182 31.6619 8.31014 31.2847 8.68622C30.9074 9.06229 30.6081 9.50876 30.404 10.0001C30.1998 10.4915 30.0947 11.0181 30.0947 11.55C30.0947 12.0819 30.1998 12.6085 30.404 13.0999C30.6081 13.5912 30.9074 14.0377 31.2847 14.4138C31.6619 14.7899 32.1098 15.0882 32.6027 15.2917C33.0956 15.4952 33.6239 15.6 34.1574 15.6C35.2349 15.6 36.2683 15.1733 37.0302 14.4138C37.7921 13.6543 38.2201 12.6241 38.2201 11.55C38.2201 10.4759 37.7921 9.44574 37.0302 8.68622C36.2683 7.9267 35.2349 7.5 34.1574 7.5ZM25.5806 11.55C25.5806 6.82815 29.4208 3 34.1574 3C38.8941 3 42.7342 6.82815 42.7342 11.55C42.7342 16.2719 38.8941 20.1 34.1574 20.1C29.4208 20.1 25.5806 16.2719 25.5806 11.55ZM82.9098 7.5C81.8323 7.5 80.7989 7.9267 80.037 8.68622C79.2751 9.44574 78.8471 10.4759 78.8471 11.55C78.8471 12.6241 79.2751 13.6543 80.037 14.4138C80.7989 15.1733 81.8323 15.6 82.9098 15.6C83.9873 15.6 85.0206 15.1733 85.7825 14.4138C86.5444 13.6543 86.9725 12.6241 86.9725 11.55C86.9725 10.4759 86.5444 9.44574 85.7825 8.68622C85.0206 7.9267 83.9873 7.5 82.9098 7.5ZM74.333 11.55C74.333 6.82815 78.1731 3 82.9098 3C87.6464 3 91.4866 6.82815 91.4866 11.55C91.4866 16.2719 87.6464 20.1 82.9098 20.1C78.1731 20.1 74.333 16.2719 74.333 11.55ZM52.2138 3C47.4772 3 43.637 6.82815 43.637 11.55C43.637 16.2719 47.4772 20.1 52.2138 20.1H64.8533C65.7422 20.1 66.5994 19.965 67.4056 19.7148L69.8189 21L72.4226 16.1382C73.084 14.9006 73.43 13.5198 73.4301 12.1174V11.55C73.4301 6.82815 69.59 3 64.8533 3H52.2138ZM68.916 11.55C68.916 10.4759 68.488 9.44574 67.7261 8.68622C66.9642 7.9267 65.9308 7.5 64.8533 7.5H52.2138C51.6803 7.5 51.152 7.60476 50.6591 7.80829C50.1662 8.01182 49.7183 8.31014 49.3411 8.68622C48.9638 9.06229 48.6646 9.50876 48.4604 10.0001C48.2562 10.4915 48.1511 11.0181 48.1511 11.55C48.1511 12.0819 48.2562 12.6085 48.4604 13.0999C48.6646 13.5912 48.9638 14.0377 49.3411 14.4138C49.7183 14.7899 50.1662 15.0882 50.6591 15.2917C51.152 15.4952 51.6803 15.6 52.2138 15.6H64.8533C65.9254 15.6 66.954 15.1777 67.715 14.4249C68.476 13.6722 68.9077 12.6502 68.916 11.5815V11.55Z" fill="#524D48"/>
<path d="M93.2922 4.125C93.2922 4.42337 93.1733 4.70952 92.9617 4.9205C92.75 5.13147 92.463 5.25 92.1637 5.25C91.8644 5.25 91.5773 5.13147 91.3657 4.9205C91.1541 4.70952 91.0352 4.42337 91.0352 4.125C91.0352 3.82663 91.1541 3.54048 91.3657 3.3295C91.5773 3.11853 91.8644 3 92.1637 3C92.463 3 92.75 3.11853 92.9617 3.3295C93.1733 3.54048 93.2922 3.82663 93.2922 4.125Z" fill="#524D48"/>
</svg>
