<svg width="20" height="21" viewBox="0 0 20 21" fill="none" xmlns="http://www.w3.org/2000/svg">
<path d="M13.3333 7.1665C14.6594 7.1665 15.9312 7.69329 16.8688 8.63097C17.8065 9.56865 18.3333 10.8404 18.3333 12.1665V17.9998H15V12.1665C15 11.7245 14.8244 11.3006 14.5118 10.988C14.1993 10.6754 13.7753 10.4998 13.3333 10.4998C12.8913 10.4998 12.4674 10.6754 12.1548 10.988C11.8422 11.3006 11.6666 11.7245 11.6666 12.1665V17.9998H8.33331V12.1665C8.33331 10.8404 8.8601 9.56865 9.79778 8.63097C10.7355 7.69329 12.0072 7.1665 13.3333 7.1665Z" fill="#D99E4B"/>
<path d="M5.00002 8H1.66669V18H5.00002V8Z" fill="#D99E4B"/>
<path d="M3.33335 5.49984C4.25383 5.49984 5.00002 4.75364 5.00002 3.83317C5.00002 2.9127 4.25383 2.1665 3.33335 2.1665C2.41288 2.1665 1.66669 2.9127 1.66669 3.83317C1.66669 4.75364 2.41288 5.49984 3.33335 5.49984Z" fill="#D99E4B"/>
</svg>
