<svg width="28" height="28" viewBox="0 0 28 28" fill="none" xmlns="http://www.w3.org/2000/svg">
<path fill-rule="evenodd" clip-rule="evenodd" d="M4 6.85714C4 6.09938 4.30102 5.37266 4.83684 4.83684C5.37266 4.30102 6.09938 4 6.85714 4H8.16381C8.98286 4 9.69714 4.5581 9.89619 5.35238L10.9486 9.56476C11.0339 9.90571 11.0166 10.2642 10.8991 10.5955C10.7815 10.9267 10.5688 11.2158 10.2876 11.4267L9.05619 12.3505C8.92762 12.4467 8.9 12.5876 8.93619 12.6857C9.47369 14.1475 10.3225 15.475 11.4238 16.5762C12.525 17.6775 13.8525 18.5263 15.3143 19.0638C15.4124 19.1 15.5524 19.0724 15.6495 18.9438L16.5733 17.7124C16.7842 17.4312 17.0733 17.2185 17.4045 17.1009C17.7358 16.9834 18.0943 16.9661 18.4352 17.0514L22.6476 18.1038C23.4419 18.3029 24 19.0171 24 19.8371V21.1429C24 21.9006 23.699 22.6273 23.1632 23.1632C22.6273 23.699 21.9006 24 21.1429 24H19C10.7162 24 4 17.2838 4 9V6.85714Z" fill="#D99E4B"/>
</svg>
