<svg width="124" height="24" viewBox="0 0 124 24" fill="none" xmlns="http://www.w3.org/2000/svg">
<path d="M28 18.0314H37.3209V14.6682H31.3128V2H28V18.0314Z" fill="#524D48"/>
<path d="M42.8432 15.7892C41.5143 15.7892 40.8218 14.3991 40.8218 12.3139C40.8218 10.2287 41.5143 8.81614 42.8432 8.81614C44.172 8.81614 44.8833 10.2287 44.8833 12.3139C44.8833 14.3991 44.172 15.7892 42.8432 15.7892ZM42.8619 18.3901C45.9501 18.3901 47.9715 15.7668 47.9715 12.3139C47.9715 8.86098 45.9501 6.23767 42.8619 6.23767C39.7923 6.23767 37.7335 8.86098 37.7335 12.3139C37.7335 15.7668 39.7923 18.3901 42.8619 18.3901Z" fill="#524D48"/>
<path d="M53.3171 22C54.7395 22 55.9935 21.6188 56.8358 20.722C57.6032 19.8924 58.1085 18.6368 58.1085 16.9103V6.55157H55.1887V7.78475H55.1513C54.5898 6.82063 53.7288 6.21525 52.4561 6.21525C50.0791 6.21525 48.432 8.59193 48.432 11.9552C48.432 15.4753 50.4347 17.4036 52.5871 17.4036C53.7475 17.4036 54.4775 16.843 55.039 16.0807H55.1139V17.2242C55.1139 18.6143 54.5711 19.4215 53.2796 19.4215C52.2689 19.4215 51.7636 18.9058 51.5951 18.3004H48.6379C48.9374 20.6996 50.678 22 53.3171 22ZM53.2983 14.6906C52.1566 14.6906 51.408 13.5695 51.408 11.843C51.408 10.0942 52.1566 8.97309 53.2983 8.97309C54.5711 8.97309 55.2449 10.2735 55.2449 11.8206C55.2449 13.435 54.6272 14.6906 53.2983 14.6906Z" fill="#524D48"/>
<path d="M64.1121 15.7892C62.7832 15.7892 62.0907 14.3991 62.0907 12.3139C62.0907 10.2287 62.7832 8.81614 64.1121 8.81614C65.441 8.81614 66.1522 10.2287 66.1522 12.3139C66.1522 14.3991 65.441 15.7892 64.1121 15.7892ZM64.1308 18.3901C67.2191 18.3901 69.2405 15.7668 69.2405 12.3139C69.2405 8.86098 67.2191 6.23767 64.1308 6.23767C61.0613 6.23767 59.0025 8.86098 59.0025 12.3139C59.0025 15.7668 61.0613 18.3901 64.1308 18.3901Z" fill="#524D48"/>
<path d="M70.1311 18.0314H73.1819V6.55157H70.1311V18.0314ZM70.1311 4.95964H73.1819V2H70.1311V4.95964Z" fill="#524D48"/>
<path d="M74.5061 21.8206H77.5569V16.843H77.5943C78.1933 17.8072 79.0729 18.3901 80.3082 18.3901C82.8163 18.3901 84.4821 16.0135 84.4821 12.2915C84.4821 8.83856 82.9286 6.21525 80.3831 6.21525C79.0729 6.21525 78.1371 6.91031 77.482 7.9417H77.4259V6.55157H74.5061V21.8206ZM79.5221 15.565C78.212 15.565 77.4633 14.287 77.4633 12.426C77.4633 10.565 78.1371 9.15247 79.466 9.15247C80.7762 9.15247 81.3938 10.4529 81.3938 12.426C81.3938 14.3767 80.6826 15.565 79.5221 15.565Z" fill="#524D48"/>
<path d="M89.449 18.3901C91.957 18.3901 93.81 17.0897 93.81 14.5785C93.81 11.6413 91.826 11.1256 90.1415 10.7892C88.9249 10.5202 87.8394 10.4081 87.8394 9.6009C87.8394 8.88341 88.4196 8.54708 89.1682 8.54708C90.0105 8.54708 90.5907 8.86099 90.703 9.89238H93.5105C93.3608 7.6278 91.9009 6.21525 89.187 6.21525C86.9222 6.21525 85.0506 7.47085 85.0506 9.89238C85.0506 12.583 86.8287 13.1211 88.4944 13.4574C89.7672 13.7265 90.9276 13.8386 90.9276 14.87C90.9276 15.6099 90.3474 16.0135 89.4303 16.0135C88.4196 16.0135 87.7832 15.4529 87.6709 14.3094H84.7885C84.8821 16.843 86.6415 18.3901 89.449 18.3901Z" fill="#524D48"/>
<path d="M97.9541 18.3677C99.283 18.3677 100.125 17.7399 100.818 16.6188H100.874V18.0314H103.794V6.55157H100.743V12.9641C100.743 14.3318 100.107 15.2735 99.0584 15.2735C98.0852 15.2735 97.6172 14.5785 97.6172 13.3229V6.55157H94.5851V14.0852C94.5851 16.6413 95.7456 18.3677 97.9541 18.3677Z" fill="#524D48"/>
<path d="M105.12 18.0314H108.171V11.5964C108.171 10.2287 108.733 9.26457 109.687 9.26457C110.604 9.26457 111.035 9.98206 111.035 11.2152V18.0314H114.086V11.5964C114.086 10.2287 114.628 9.26457 115.602 9.26457C116.519 9.26457 116.949 9.98206 116.949 11.2152V18.0314H120V10.565C120 7.98655 118.914 6.21525 116.743 6.21525C115.508 6.21525 114.479 6.84305 113.73 8.23318H113.692C113.206 7 112.251 6.21525 110.997 6.21525C109.612 6.21525 108.695 7 108.096 8.18834H108.04V6.55157H105.12V18.0314Z" fill="#524D48"/>
<path fill-rule="evenodd" clip-rule="evenodd" d="M13 22C18.5229 22 23 17.5228 23 12C23 6.47715 18.5229 2 13 2C7.47715 2 3 6.47715 3 12C3 17.5228 7.47715 22 13 22ZM14.5435 9.72629C15.3959 8.87384 15.3959 7.49179 14.5435 6.63933C13.691 5.78689 12.309 5.78689 11.4565 6.63933C10.6041 7.49179 10.6041 8.87384 11.4565 9.72629L13 11.2697L14.5435 9.72629ZM15.2737 13.5435C16.1262 14.3959 17.5082 14.3959 18.3607 13.5435C19.2131 12.691 19.2131 11.309 18.3607 10.4565C17.5082 9.60414 16.1262 9.60414 15.2737 10.4565L13.7303 12L15.2737 13.5435ZM14.5435 17.3607C15.3959 16.5082 15.3959 15.1262 14.5435 14.2737L13 12.7303L11.4565 14.2737C10.6041 15.1262 10.6041 16.5082 11.4565 17.3607C12.309 18.2131 13.691 18.2131 14.5435 17.3607ZM7.63932 13.5435C6.7869 12.691 6.7869 11.309 7.63932 10.4565C8.49179 9.60414 9.87384 9.60414 10.7263 10.4565L12.2697 12L10.7263 13.5435C9.87384 14.3959 8.49179 14.3959 7.63932 13.5435Z" fill="#524D48"/>
</svg>
