<svg width="20" height="21" viewBox="0 0 20 21" fill="none" xmlns="http://www.w3.org/2000/svg">
<path fill-rule="evenodd" clip-rule="evenodd" d="M5.83335 2.1665H14.1667C16.4679 2.1665 18.3334 4.03198 18.3334 6.33317V14.6665C18.3334 16.9677 16.4679 18.8332 14.1667 18.8332H5.83335C3.53217 18.8332 1.66669 16.9677 1.66669 14.6665V6.33317C1.66669 4.03198 3.53217 2.1665 5.83335 2.1665ZM13.5834 5.9165C13.5834 5.36422 14.0311 4.9165 14.5834 4.9165H14.5945C15.1467 4.9165 15.5945 5.36422 15.5945 5.9165C15.5945 6.46879 15.1467 6.9165 14.5945 6.9165H14.5834C14.0311 6.9165 13.5834 6.46879 13.5834 5.9165ZM10.3785 8.15594C9.89302 8.08395 9.39721 8.16687 8.96157 8.39291C8.52594 8.61895 8.17267 8.9766 7.95202 9.41499C7.73137 9.85338 7.65457 10.3502 7.73254 10.8347C7.81051 11.3193 8.03928 11.7669 8.38632 12.1139C8.73336 12.461 9.18099 12.6898 9.66554 12.7677C10.1501 12.8457 10.6469 12.7689 11.0853 12.5482C11.5237 12.3276 11.8813 11.9743 12.1074 11.5387C12.3334 11.1031 12.4163 10.6072 12.3443 10.1218C12.2709 9.62657 12.0401 9.16811 11.6862 8.81412C11.3322 8.46013 10.8737 8.22937 10.3785 8.15594ZM8.04043 6.61767C8.84946 6.19788 9.77027 6.04388 10.6719 6.17757C11.5915 6.31395 12.443 6.74249 13.1004 7.3999C13.7578 8.05732 14.1863 8.90874 14.3227 9.82841C14.4564 10.73 14.3024 11.6508 13.8826 12.4598C13.4628 13.2689 12.7986 13.9249 11.9845 14.3347C11.1703 14.7445 10.2477 14.8871 9.3478 14.7423C8.44792 14.5975 7.61661 14.1727 6.97211 13.5282C6.32761 12.8837 5.90274 12.0524 5.75794 11.1525C5.61314 10.2526 5.75577 9.32996 6.16555 8.51581C6.57534 7.70166 7.2314 7.03746 8.04043 6.61767Z" fill="#D99E4B"/>
</svg>
