<svg width="31" height="30" viewBox="0 0 31 30" fill="none" xmlns="http://www.w3.org/2000/svg">
<path d="M4 11.5862V20.784C4 21.6369 4.34565 22.4549 4.96092 23.0581C5.57619 23.6612 6.41067 24 7.28079 24H23.6847C24.5548 24 25.3893 23.6612 26.0046 23.0581C26.6199 22.4549 26.9655 21.6369 26.9655 20.784V11.5862L17.2019 17.4747C16.6849 17.7865 16.0898 17.9516 15.4828 17.9516C14.8757 17.9516 14.2806 17.7865 13.7636 17.4747L4 11.5862Z" fill="#D99E4B"/>
<path d="M26.9655 9.35123V9.18356C26.9655 8.33923 26.6199 7.52948 26.0046 6.93244C25.3893 6.33541 24.5548 6 23.6847 6H7.28079C6.41067 6 5.57619 6.33541 4.96092 6.93244C4.34565 7.52948 4 8.33923 4 9.18356V9.35123L14.6232 15.695C14.8817 15.8493 15.1792 15.931 15.4828 15.931C15.7863 15.931 16.0838 15.8493 16.3423 15.695L26.9655 9.35123Z" fill="#D99E4B"/>
</svg>
