<svg width="108" height="24" viewBox="0 0 108 24" fill="none" xmlns="http://www.w3.org/2000/svg">
<path d="M31.4008 16.0174C31.4008 16.5414 31.2947 16.9439 31.0826 17.2251C30.876 17.5064 30.5307 17.647 30.0467 17.647C29.5898 17.647 29.2663 17.5064 29.0759 17.2251C28.891 16.9439 28.7986 16.5414 28.7986 16.0174V7.27389C28.7986 6.74999 28.891 6.34742 29.0759 6.06616C29.2663 5.78491 29.5898 5.64429 30.0467 5.64429C30.5307 5.64429 30.876 5.78491 31.0826 6.06616C31.2947 6.34742 31.4008 6.74999 31.4008 7.27389V16.0174Z" fill="#524D48"/>
<path d="M32.1908 13.478C32.1908 12.8934 32.2832 12.3419 32.4682 11.8235C32.6585 11.2996 32.9413 10.8419 33.3165 10.4504C33.6972 10.0588 34.1704 9.74725 34.736 9.51565C35.307 9.28398 35.9759 9.16821 36.7427 9.16821C37.4769 9.16821 38.1268 9.27572 38.6923 9.4908C39.2579 9.70588 39.7338 10.0064 40.1198 10.3925C40.506 10.773 40.7997 11.2279 41.0009 11.7573C41.2021 12.2812 41.3027 12.8548 41.3027 13.478C41.3027 14.057 41.2075 14.6057 41.0172 15.1241C40.8269 15.6369 40.5413 16.0892 40.1606 16.4807C39.78 16.8667 39.3041 17.1755 38.7331 17.4072C38.162 17.6333 37.4986 17.7463 36.7427 17.7463C35.9976 17.7463 35.3396 17.6388 34.7685 17.4237C34.203 17.2031 33.7272 16.9026 33.341 16.522C32.9603 16.136 32.6721 15.6839 32.4763 15.1655C32.286 14.6416 32.1908 14.079 32.1908 13.478ZM34.9073 13.478C34.9073 13.8419 34.9398 14.1894 35.0051 14.5202C35.0704 14.8456 35.1737 15.1324 35.3151 15.3805C35.4619 15.6287 35.6523 15.8272 35.8861 15.9761C36.12 16.1195 36.4055 16.1912 36.7427 16.1912C37.0527 16.1912 37.3218 16.125 37.5502 15.9926C37.7841 15.8603 37.9744 15.6755 38.1213 15.4384C38.2736 15.2013 38.3878 14.9173 38.4639 14.5864C38.54 14.25 38.5781 13.8805 38.5781 13.478C38.5781 13.114 38.5427 12.7693 38.4721 12.4439C38.4068 12.1131 38.3008 11.8235 38.1539 11.5753C38.0071 11.3217 37.8168 11.1232 37.5829 10.9798C37.3545 10.8309 37.0744 10.7564 36.7427 10.7564C36.4109 10.7564 36.1282 10.8281 35.8943 10.9715C35.6605 11.1149 35.4701 11.3106 35.3233 11.5588C35.1765 11.807 35.0704 12.0965 35.0051 12.4274C34.9398 12.7583 34.9073 13.1084 34.9073 13.478Z" fill="#524D48"/>
<path d="M47.9986 16.0506C47.8518 16.3263 47.6723 16.5607 47.4602 16.7537C47.2536 16.9467 47.0224 17.1067 46.7669 17.2335C46.5167 17.3548 46.2475 17.4458 45.9593 17.5065C45.6764 17.5616 45.3855 17.5892 45.0864 17.5892C44.5861 17.5892 44.1293 17.4982 43.7159 17.3162C43.3027 17.1342 42.9465 16.8722 42.6473 16.5304C42.3537 16.1829 42.1253 15.7583 41.9621 15.2565C41.7989 14.7546 41.7173 14.1811 41.7173 13.5359C41.7173 12.9292 41.7935 12.3612 41.9458 11.8318C42.098 11.3024 42.3183 10.842 42.6065 10.4504C42.9002 10.0588 43.2591 9.75002 43.6834 9.52393C44.1075 9.29784 44.5916 9.18475 45.1354 9.18475C45.7553 9.18475 46.3046 9.30609 46.7832 9.54871C47.2672 9.79139 47.6832 10.1884 48.0313 10.7399V10.5249C48.0313 10.1278 48.1373 9.83 48.3494 9.63144C48.5669 9.42744 48.8661 9.32537 49.2468 9.32537C49.4751 9.32537 49.6682 9.36398 49.8259 9.4412C49.9836 9.51292 50.1087 9.62318 50.2011 9.77212C50.2936 9.91548 50.3588 10.0947 50.3969 10.3098C50.4404 10.5193 50.4622 10.7592 50.4622 11.0294V16.5717C50.4622 17.2445 50.3779 17.8456 50.2093 18.375C50.0462 18.9044 49.7905 19.3512 49.4425 19.7151C49.0944 20.0791 48.6485 20.3548 48.1047 20.5423C47.5609 20.7353 46.9137 20.8318 46.1632 20.8318C45.6357 20.8318 45.168 20.807 44.7601 20.7573C44.3577 20.7133 44.0096 20.6443 43.7159 20.5506C43.4223 20.4458 43.1994 20.33 43.047 20.2032C42.9002 20.0763 42.8268 19.9108 42.8268 19.7068C42.8268 19.591 42.8431 19.4808 42.8757 19.3759C42.9084 19.2712 42.9573 19.1774 43.0225 19.0947C43.0933 19.0175 43.183 18.9541 43.2918 18.9044C43.406 18.8604 43.5446 18.8383 43.7078 18.8383C43.8818 18.8383 44.0558 18.8493 44.2299 18.8714C44.4093 18.8934 44.5943 18.9155 44.7846 18.9375C44.9803 18.9651 45.1843 18.9899 45.3964 19.012C45.6139 19.034 45.8478 19.0451 46.0979 19.0451C46.397 19.0451 46.6635 19.0147 46.8974 18.9541C47.1312 18.8934 47.3297 18.7859 47.4929 18.6314C47.656 18.4771 47.7811 18.2702 47.8681 18.011C47.9551 17.7573 47.9986 17.432 47.9986 17.0349V16.0506ZM47.9986 13.478C47.9986 13.0754 47.9687 12.7087 47.9089 12.3778C47.8545 12.0469 47.7593 11.7657 47.6234 11.534C47.4874 11.2969 47.3052 11.1149 47.0769 10.9881C46.8484 10.8557 46.5629 10.7896 46.2203 10.7896C45.8831 10.7896 45.6031 10.8585 45.3801 10.9963C45.1626 11.1342 44.9885 11.3245 44.858 11.5671C44.7275 11.8098 44.6351 12.0938 44.5806 12.4192C44.5317 12.7445 44.5073 13.092 44.5073 13.4614C44.5073 14.3052 44.6541 14.9394 44.9478 15.364C45.2414 15.7886 45.6683 16.001 46.2284 16.001C46.4895 15.9955 46.7261 15.9458 46.9381 15.852C47.1557 15.7528 47.3433 15.6012 47.501 15.3971C47.6587 15.193 47.7811 14.9338 47.8681 14.6195C47.9551 14.3052 47.9986 13.9247 47.9986 13.478Z" fill="#524D48"/>
<path d="M51.2114 13.478C51.2114 12.8934 51.3039 12.3419 51.4888 11.8235C51.6791 11.2996 51.9619 10.8419 52.3372 10.4504C52.7179 10.0588 53.1909 9.74725 53.7565 9.51565C54.3276 9.28398 54.9965 9.16821 55.7633 9.16821C56.4974 9.16821 57.1473 9.27572 57.7129 9.4908C58.2785 9.70588 58.7543 10.0064 59.1405 10.3925C59.5266 10.773 59.8203 11.2279 60.0215 11.7573C60.2227 12.2812 60.3233 12.8548 60.3233 13.478C60.3233 14.057 60.2281 14.6057 60.0378 15.1241C59.8474 15.6369 59.562 16.0892 59.1813 16.4807C58.8006 16.8667 58.3247 17.1755 57.7537 17.4072C57.1827 17.6333 56.5192 17.7463 55.7633 17.7463C55.0182 17.7463 54.3602 17.6388 53.7892 17.4237C53.2236 17.2031 52.7477 16.9026 52.3616 16.522C51.981 16.136 51.6927 15.6839 51.4969 15.1655C51.3066 14.6416 51.2114 14.079 51.2114 13.478ZM53.9278 13.478C53.9278 13.8419 53.9605 14.1894 54.0258 14.5202C54.091 14.8456 54.1943 15.1324 54.3357 15.3805C54.4826 15.6287 54.6729 15.8272 54.9068 15.9761C55.1406 16.1195 55.4261 16.1912 55.7633 16.1912C56.0733 16.1912 56.3425 16.125 56.5709 15.9926C56.8047 15.8603 56.9951 15.6755 57.1419 15.4384C57.2942 15.2013 57.4083 14.9173 57.4845 14.5864C57.5607 14.25 57.5987 13.8805 57.5987 13.478C57.5987 13.114 57.5634 12.7693 57.4926 12.4439C57.4274 12.1131 57.3213 11.8235 57.1745 11.5753C57.0277 11.3217 56.8373 11.1232 56.6035 10.9798C56.3751 10.8309 56.095 10.7564 55.7633 10.7564C55.4316 10.7564 55.1487 10.8281 54.9149 10.9715C54.6811 11.1149 54.4907 11.3106 54.3439 11.5588C54.1971 11.807 54.091 12.0965 54.0258 12.4274C53.9605 12.7583 53.9278 13.1084 53.9278 13.478Z" fill="#524D48"/>
<path d="M63.8215 6.38049C63.8215 6.56248 63.7807 6.72516 63.6991 6.86854C63.6176 7.00641 63.5115 7.12219 63.381 7.216C63.2505 7.30974 63.0982 7.38139 62.9242 7.43101C62.7556 7.47513 62.5816 7.49722 62.4021 7.49722C62.2118 7.49722 62.0296 7.47238 61.8556 7.42275C61.687 7.37313 61.5375 7.30148 61.4069 7.20767C61.2764 7.10842 61.173 6.98986 61.0969 6.852C61.0208 6.71413 60.9827 6.55696 60.9827 6.38049C60.9827 6.22056 61.0181 6.07442 61.0887 5.94207C61.1649 5.80421 61.2655 5.68564 61.3906 5.58637C61.5157 5.48711 61.6653 5.4099 61.8393 5.35476C62.0133 5.29961 62.2036 5.27203 62.4103 5.27203C62.5898 5.27203 62.7638 5.29685 62.9324 5.34648C63.1064 5.39611 63.2586 5.4678 63.3892 5.56156C63.5197 5.65531 63.6231 5.77111 63.6991 5.90898C63.7807 6.04685 63.8215 6.20402 63.8215 6.38049ZM63.6991 16.0174C63.6991 16.5413 63.5931 16.9439 63.381 17.2251C63.1743 17.5064 62.829 17.647 62.345 17.647C61.8882 17.647 61.5646 17.5064 61.3743 17.2251C61.1894 16.9439 61.0969 16.5413 61.0969 16.0174V10.9549C61.0969 10.431 61.1894 10.0284 61.3743 9.74722C61.5646 9.466 61.8882 9.32532 62.345 9.32532C62.829 9.32532 63.1743 9.466 63.381 9.74722C63.5931 10.0284 63.6991 10.431 63.6991 10.9549V16.0174Z" fill="#524D48"/>
<path d="M67.4503 13.4614C67.4503 13.8309 67.4774 14.1756 67.5319 14.4955C67.5917 14.8153 67.6895 15.0965 67.8255 15.3392C67.9669 15.5763 68.1518 15.7638 68.3802 15.9016C68.614 16.0396 68.9023 16.1085 69.2449 16.1085C69.5603 16.1085 69.8241 16.0423 70.0364 15.91C70.2536 15.7721 70.4276 15.5846 70.5585 15.3475C70.6886 15.1048 70.7812 14.8208 70.8355 14.4955C70.8954 14.17 70.9253 13.8171 70.9253 13.4366C70.9253 13.1333 70.9037 12.8245 70.8599 12.5102C70.8167 12.1903 70.7353 11.9008 70.6156 11.6416C70.4958 11.3824 70.3301 11.17 70.1178 11.0046C69.9055 10.8392 69.6285 10.7565 69.2857 10.7565C68.9431 10.7565 68.6521 10.8116 68.4129 10.9219C68.179 11.0322 67.9887 11.2004 67.8419 11.4265C67.7004 11.6526 67.5998 11.9366 67.54 12.2785C67.4802 12.6149 67.4503 13.0092 67.4503 13.4614ZM67.4422 10.955C67.5781 10.6627 67.7521 10.4063 67.9642 10.1857C68.1763 9.96511 68.4102 9.78038 68.6658 9.63144C68.9214 9.48257 69.1878 9.37224 69.4652 9.30059C69.7482 9.22337 70.028 9.18475 70.3051 9.18475C70.8056 9.18475 71.2574 9.29784 71.6597 9.52393C72.0621 9.75002 72.4045 10.0588 72.6872 10.4504C72.9753 10.8364 73.196 11.2941 73.3485 11.8236C73.5002 12.3475 73.5768 12.91 73.5768 13.511C73.5768 14.1342 73.4946 14.705 73.3317 15.2234C73.1744 15.7418 72.9482 16.1884 72.6544 16.5634C72.3663 16.9329 72.0182 17.2224 71.6103 17.432C71.2079 17.6416 70.7596 17.7463 70.2647 17.7463C69.6556 17.7463 69.1117 17.603 68.6331 17.3162C68.1545 17.0294 67.7576 16.6269 67.4422 16.1085V19.0864C67.4422 19.6103 67.3361 20.0129 67.124 20.2941C66.9173 20.5754 66.572 20.716 66.0879 20.716C65.6312 20.716 65.3076 20.5754 65.1172 20.2941C64.9324 20.0129 64.8399 19.6103 64.8399 19.0864V10.955C64.8399 10.4311 64.9324 10.0285 65.1172 9.74727C65.3076 9.46605 65.6312 9.32537 66.0879 9.32537C66.572 9.32537 66.9173 9.46605 67.124 9.74727C67.3361 10.0285 67.4422 10.4311 67.4422 10.955Z" fill="#524D48"/>
<path d="M76.4469 11.5423C76.4469 11.7573 76.5394 11.9255 76.7239 12.0469C76.9091 12.1627 77.1645 12.2592 77.491 12.3364C77.8008 12.4081 78.1189 12.477 78.4454 12.5432C78.7719 12.6094 79.09 12.6866 79.3997 12.7748C79.7095 12.8575 80.0005 12.9568 80.2727 13.0726C80.5441 13.1884 80.7836 13.3345 80.9903 13.511C81.1971 13.682 81.36 13.8916 81.4797 14.1397C81.5994 14.3824 81.6593 14.6747 81.6593 15.0165C81.6593 15.4467 81.5723 15.83 81.3982 16.1663C81.2242 16.4972 80.9771 16.7785 80.6562 17.0101C80.3409 17.2417 79.9629 17.421 79.5222 17.5478C79.0816 17.6747 78.595 17.7408 78.0618 17.7463C77.5565 17.7463 77.0692 17.7133 76.6014 17.6471C76.1343 17.5864 75.718 17.4899 75.3533 17.3575C74.9948 17.2252 74.7066 17.0625 74.4887 16.8695C74.2715 16.671 74.1629 16.4394 74.1629 16.1747C74.1629 15.943 74.236 15.7638 74.3829 15.6369C74.5298 15.5101 74.717 15.4467 74.9461 15.4467C75.0331 15.4467 75.1361 15.4632 75.2558 15.4963C75.3756 15.5294 75.5057 15.5708 75.647 15.6204C75.7883 15.67 75.938 15.7252 76.096 15.7859C76.2589 15.841 76.4274 15.8906 76.6014 15.9347C76.8193 15.9954 77.042 16.0451 77.2704 16.0837C77.5042 16.1167 77.7437 16.1333 77.9887 16.1333C78.1405 16.1333 78.2901 16.1195 78.437 16.0919C78.5839 16.0588 78.7148 16.012 78.8289 15.9513C78.9487 15.8851 79.0461 15.8024 79.1227 15.7031C79.1986 15.6039 79.2445 15.4825 79.2612 15.3392C79.2772 15.3061 79.2911 15.273 79.3016 15.2399C79.3127 15.2068 79.3183 15.1682 79.3183 15.1241C79.3183 14.9696 79.2473 14.8318 79.106 14.7104C78.9702 14.5892 78.7767 14.4926 78.5268 14.421C78.1078 14.3217 77.7082 14.2307 77.3274 14.148C76.9474 14.0653 76.5937 13.977 76.2673 13.8833C75.9464 13.7896 75.6526 13.682 75.386 13.5606C75.125 13.4394 74.9022 13.2904 74.717 13.114C74.5381 12.9375 74.3961 12.7252 74.2931 12.477C74.195 12.2288 74.1462 11.9283 74.1462 11.5753C74.1462 11.1949 74.2305 10.8557 74.3989 10.5579C74.573 10.2546 74.8208 10.0009 75.1417 9.79687C75.4626 9.5928 75.851 9.43842 76.3083 9.33367C76.765 9.22334 77.2815 9.16821 77.8579 9.16821C78.8909 9.16821 79.6768 9.29506 80.2156 9.54868C80.7592 9.79687 81.0314 10.1222 81.0314 10.5248C81.0314 10.7509 80.9576 10.9247 80.8107 11.0459C80.6639 11.1618 80.4871 11.2196 80.281 11.2196C80.1717 11.2196 80.0576 11.2004 79.9378 11.1618C79.8237 11.1176 79.6851 11.0708 79.5222 11.0212C79.3587 10.966 79.1631 10.9192 78.9347 10.8805C78.712 10.8364 78.4342 10.8143 78.1029 10.8143C77.8523 10.8143 77.624 10.8253 77.4172 10.8474C77.2161 10.8695 77.042 10.9081 76.8952 10.9632C76.7538 11.0184 76.6425 11.0928 76.561 11.1866C76.4845 11.2804 76.4469 11.3989 76.4469 11.5423Z" fill="#524D48"/>
<path d="M84.97 14.5781C84.97 14.8373 85.0027 15.0634 85.0681 15.2564C85.1384 15.4494 85.2338 15.6121 85.3535 15.7445C85.4732 15.8713 85.6118 15.9678 85.7691 16.034C85.9327 16.0947 86.1067 16.125 86.2912 16.125C86.509 16.125 86.7186 16.0919 86.9197 16.0257C87.1209 15.9596 87.2977 15.8575 87.4502 15.7196C87.6075 15.5818 87.7328 15.408 87.8254 15.1985C87.9173 14.989 87.9639 14.7435 87.9639 14.4623V10.9549C87.9639 10.431 88.0565 10.0284 88.2409 9.74722C88.4317 9.466 88.7554 9.32532 89.212 9.32532C89.6958 9.32532 90.0411 9.466 90.2478 9.74722C90.4601 10.0284 90.5659 10.431 90.5659 10.9549V16.0174C90.5659 16.5413 90.4601 16.9439 90.2478 17.2251C90.0411 17.5064 89.6958 17.647 89.212 17.647C88.7554 17.647 88.4317 17.5064 88.2409 17.2251C88.0565 16.9439 87.9639 16.5413 87.9639 16.0174C87.8497 16.2711 87.7001 16.5027 87.5149 16.7123C87.3353 16.9219 87.1237 17.1039 86.8787 17.2582C86.6392 17.4072 86.3733 17.5229 86.0795 17.6057C85.7914 17.6884 85.4781 17.7298 85.1412 17.7298C84.7771 17.7298 84.4263 17.6663 84.0887 17.5395C83.7573 17.4072 83.4636 17.2141 83.2081 16.9604C82.9526 16.7013 82.7487 16.3814 82.5962 16.0009C82.4438 15.6204 82.3679 15.1764 82.3679 14.6691V10.9549C82.3679 10.431 82.4605 10.0284 82.645 9.74722C82.8357 9.466 83.1587 9.32532 83.616 9.32532C84.0998 9.32532 84.4451 9.466 84.6518 9.74722C84.8641 10.0284 84.97 10.431 84.97 10.9549V14.5781Z" fill="#524D48"/>
<path d="M91.7472 10.955C91.7472 10.4311 91.8398 10.0285 92.0249 9.74727C92.215 9.46605 92.5387 9.32537 92.9953 9.32537C93.4798 9.32537 93.8251 9.46605 94.0318 9.74727C94.2434 10.0285 94.3499 10.4311 94.3499 10.955C94.4585 10.6903 94.6054 10.4504 94.7906 10.2353C94.9806 10.0147 95.1957 9.82725 95.4345 9.6728C95.6795 9.51842 95.9433 9.39984 96.2259 9.31711C96.5085 9.22887 96.8023 9.18475 97.1072 9.18475C97.3898 9.18475 97.6669 9.22337 97.939 9.30059C98.2161 9.37224 98.4723 9.49082 98.7061 9.65628C98.9449 9.81617 99.1544 10.0202 99.334 10.2684C99.5136 10.5165 99.6522 10.8144 99.7503 11.1618C99.9188 10.7923 100.117 10.4808 100.345 10.2271C100.574 9.97337 100.822 9.7693 101.088 9.61492C101.354 9.46047 101.632 9.35021 101.92 9.284C102.214 9.21786 102.507 9.18475 102.801 9.18475C103.149 9.18475 103.481 9.24821 103.796 9.37499C104.117 9.50184 104.397 9.69489 104.636 9.95409C104.881 10.2077 105.074 10.5304 105.215 10.9219C105.362 11.3079 105.435 11.7602 105.435 12.2785V16.0175C105.435 16.5414 105.33 16.944 105.117 17.2252C104.911 17.5065 104.565 17.6471 104.081 17.6471C103.625 17.6471 103.301 17.5065 103.111 17.2252C102.926 16.944 102.833 16.5414 102.833 16.0175V12.3943C102.833 12.1461 102.801 11.9256 102.736 11.7326C102.67 11.534 102.578 11.3686 102.458 11.2363C102.344 11.0984 102.208 10.9963 102.05 10.9302C101.893 10.8585 101.724 10.8226 101.545 10.8226C101.321 10.8226 101.11 10.8585 100.909 10.9302C100.707 11.0018 100.531 11.1122 100.378 11.261C100.231 11.41 100.112 11.6002 100.019 11.8318C99.932 12.0634 99.8888 12.342 99.8888 12.6673V16.0175C99.8888 16.5414 99.7823 16.944 99.5707 17.2252C99.364 17.5065 99.0187 17.6471 98.5342 17.6471C98.0776 17.6471 97.7539 17.5065 97.5638 17.2252C97.3787 16.944 97.2861 16.5414 97.2861 16.0175V12.5515C97.2861 11.9835 97.1692 11.5533 96.936 11.261C96.7069 10.9688 96.3944 10.8226 95.9976 10.8226C95.7637 10.8226 95.5458 10.8612 95.3447 10.9384C95.1435 11.0157 94.9695 11.1287 94.8226 11.2776C94.6757 11.4265 94.5588 11.6112 94.4717 11.8318C94.3903 12.0524 94.3499 12.3061 94.3499 12.5928V16.0175C94.3499 16.5414 94.2434 16.944 94.0318 17.2252C93.8251 17.5065 93.4798 17.6471 92.9953 17.6471C92.5387 17.6471 92.215 17.5065 92.0249 17.2252C91.8398 16.944 91.7472 16.5414 91.7472 16.0175V10.955Z" fill="#524D48"/>
<path fill-rule="evenodd" clip-rule="evenodd" d="M22.2754 12.0001C22.2754 12.4183 22.2498 12.8305 22.2001 13.235C21.7313 12.6302 21.0181 12.2118 20.2595 12.1037C19.4383 11.9866 18.7035 12.2137 18.0893 12.6112C18.1105 12.4105 18.1214 12.2066 18.1214 12.0001C18.1214 8.86861 15.618 6.33002 12.5299 6.33002C9.44183 6.33002 6.93841 8.86861 6.93841 12.0001C6.93841 12.2741 6.95759 12.5437 6.99465 12.8073C6.36725 12.432 5.6252 12.2312 4.80873 12.3772C4.05411 12.5121 3.35547 12.9557 2.90784 13.5771C2.82662 13.0636 2.78442 12.5368 2.78442 12.0001C2.78442 6.54218 7.14763 2.11768 12.5299 2.11768C17.9122 2.11768 22.2754 6.54218 22.2754 12.0001ZM12.5299 15.953C10.377 15.953 8.63172 14.1832 8.63172 12.0001C8.63172 9.81692 10.377 8.04711 12.5299 8.04711C14.6828 8.04711 16.4281 9.81692 16.4281 12.0001C16.4281 14.1832 14.6828 15.953 12.5299 15.953ZM4.97796 13.3503C3.84829 13.5523 3.07397 14.6589 3.50761 15.7358C4.11303 17.2392 5.07889 18.5788 6.33106 19.6255C8.12158 21.1222 10.3799 21.9219 12.7 21.8809C15.0201 21.8398 17.2496 20.9606 18.9875 19.4015C20.2029 18.3111 21.1221 16.9382 21.6754 15.4142C22.0717 14.3226 21.2597 13.2441 20.1238 13.0823C18.9879 12.9204 17.968 13.7588 17.407 14.7734C17.1028 15.3233 16.708 15.8222 16.235 16.2466C15.2379 17.1412 13.9587 17.6456 12.6276 17.6692C11.2964 17.6927 10.0006 17.2339 8.97333 16.3751C8.48599 15.9678 8.07428 15.4831 7.75139 14.9443C7.15575 13.9502 6.10763 13.1483 4.97796 13.3503Z" fill="#524D48"/>
</svg>
