<svg width="121" height="24" viewBox="0 0 121 24" fill="none" xmlns="http://www.w3.org/2000/svg">
<g clip-path="url(#clip0_81_1002)">
<path fill-rule="evenodd" clip-rule="evenodd" d="M15.4161 7.01118C14.4392 6.3519 13.2906 6 12.1157 6V0C14.4655 0 16.7627 0.703788 18.7165 2.02237C20.6704 3.34094 22.1932 5.21509 23.0925 7.40778C23.9917 9.60048 24.227 12.0133 23.7686 14.3411C23.3101 16.6688 22.1786 18.8071 20.5169 20.4853C18.8553 22.1635 16.7383 23.3064 14.4336 23.7694C12.1289 24.2324 9.73992 23.9948 7.56893 23.0866C5.39794 22.1783 3.54236 20.6402 2.23684 18.6668C0.931317 16.6934 0.234497 14.3734 0.234497 12H6.17509C6.17509 13.1867 6.52351 14.3467 7.17626 15.3334C7.82901 16.3201 8.75681 17.0891 9.84234 17.5433C10.9278 17.9974 12.1223 18.1162 13.2746 17.8847C14.427 17.6532 15.4855 17.0818 16.3163 16.2427C17.1471 15.4035 17.7129 14.3344 17.9421 13.1705C18.1713 12.0067 18.0537 10.8002 17.6041 9.70392C17.1544 8.60754 16.393 7.67046 15.4161 7.01118Z" fill="#524D48"/>
<path fill-rule="evenodd" clip-rule="evenodd" d="M6.17509 3.17096e-06C6.17509 0.787934 6.02143 1.56815 5.72289 2.29611C5.42435 3.02406 4.98677 3.68549 4.43513 4.24264C3.8835 4.7998 3.22861 5.24175 2.50786 5.54328C1.78712 5.84481 1.01462 6 0.234497 6L0.234497 12C1.79476 12 3.33974 11.6896 4.78123 11.0866C6.22273 10.4835 7.53251 9.59958 8.63574 8.48526C9.73903 7.371 10.6142 6.04812 11.2113 4.5922C11.8084 3.13629 12.1157 1.57586 12.1157 0L6.17509 3.17096e-06Z" fill="#524D48"/>
<path d="M74.8596 8.67151H71.9773V17.9189H74.8596V8.67151Z" fill="#524D48"/>
<path d="M72.2981 6.93997C72.5993 7.24441 72.9759 7.39663 73.428 7.39663C73.8801 7.39663 74.2507 7.24441 74.5395 6.93997C74.8288 6.62287 74.9731 6.24229 74.9731 5.79832C74.9731 5.34167 74.8288 4.96111 74.5395 4.65668C74.2507 4.35223 73.8801 4.20001 73.428 4.20001C72.9759 4.20001 72.5993 4.35223 72.2981 4.65668C72.0088 4.96111 71.8644 5.34167 71.8644 5.79832C71.8644 6.24229 72.0088 6.62287 72.2981 6.93997Z" fill="#524D48"/>
<path d="M30.6243 17.9189V4.48541H33.5821V15.2931H39.4788V17.9189H30.6243Z" fill="#524D48"/>
<path fill-rule="evenodd" clip-rule="evenodd" d="M44.8052 18.1282C43.8633 18.1282 43.0093 17.9189 42.2431 17.5003C41.4895 17.069 40.893 16.4855 40.4534 15.7497C40.0138 15.014 39.794 14.1895 39.794 13.2761C39.794 12.3628 40.0138 11.5447 40.4534 10.8216C40.893 10.0985 41.4895 9.5277 42.2431 9.10914C42.9967 8.6778 43.8507 8.46216 44.8052 8.46216C45.7598 8.46216 46.6138 8.6715 47.3673 9.09006C48.1209 9.50868 48.7175 10.0859 49.1571 10.8216C49.5967 11.5447 49.8165 12.3628 49.8165 13.2761C49.8165 14.1895 49.5967 15.014 49.1571 15.7497C48.7175 16.4855 48.1209 17.069 47.3673 17.5003C46.6138 17.9189 45.7598 18.1282 44.8052 18.1282ZM44.8052 15.4834C45.2197 15.4834 45.5839 15.3946 45.8979 15.217C46.2119 15.0267 46.4505 14.7667 46.6138 14.4368C46.7896 14.0944 46.8775 13.7074 46.8775 13.2761C46.8775 12.8449 46.7896 12.4706 46.6138 12.1535C46.4379 11.8237 46.1931 11.57 45.879 11.3924C45.5776 11.2021 45.2197 11.107 44.8052 11.107C44.4033 11.107 44.0454 11.2021 43.7314 11.3924C43.4174 11.57 43.1725 11.8237 42.9967 12.1535C42.8208 12.4834 42.733 12.8639 42.733 13.2952C42.733 13.7138 42.8208 14.0944 42.9967 14.4368C43.1725 14.7667 43.4174 15.0267 43.7314 15.217C44.0454 15.3946 44.4033 15.4834 44.8052 15.4834Z" fill="#524D48"/>
<path fill-rule="evenodd" clip-rule="evenodd" d="M52.0993 21.5341C52.8654 21.8893 53.7508 22.0669 54.7556 22.0669C55.7352 22.0669 56.6081 21.8703 57.3742 21.477C58.1404 21.0838 58.7432 20.5384 59.1828 19.8407C59.6223 19.143 59.8424 18.3185 59.8424 17.3671V8.67152H57.0162V9.29282C56.8061 9.11414 56.5674 8.96414 56.3004 8.84276C55.8105 8.60174 55.2516 8.4812 54.6237 8.4812C53.7822 8.4812 53.0349 8.68418 52.3819 9.09008C51.7287 9.48332 51.2138 10.0288 50.837 10.7265C50.4602 11.4115 50.2719 12.1852 50.2719 13.0479C50.2719 13.8978 50.4602 14.6715 50.837 15.3692C51.2138 16.0669 51.7287 16.6187 52.3819 17.0246C53.0349 17.4305 53.7822 17.6335 54.6237 17.6335C55.2391 17.6335 55.798 17.513 56.3004 17.272C56.5437 17.1552 56.7635 17.0176 56.9597 16.8592V17.4432C56.9597 18.0901 56.7525 18.5912 56.3381 18.9464C55.9362 19.3016 55.3773 19.4791 54.6614 19.4791C54.0837 19.4791 53.5876 19.3777 53.1731 19.1747C52.7712 18.9718 52.4069 18.6736 52.0804 18.2804L50.3095 20.069C50.7491 20.7033 51.3457 21.1917 52.0993 21.5341ZM56.2062 14.7793C55.9173 14.9569 55.572 15.0457 55.17 15.0457C54.7681 15.0457 54.4165 14.9569 54.115 14.7793C53.8261 14.6017 53.6001 14.3607 53.4369 14.0563C53.2735 13.7392 53.1919 13.403 53.1919 13.0479C53.1919 12.6673 53.2735 12.3248 53.4369 12.0204C53.6001 11.7159 53.8324 11.4749 54.1339 11.2973C54.4353 11.1197 54.7807 11.0309 55.17 11.0309C55.572 11.0309 55.9173 11.1197 56.2062 11.2973C56.5076 11.4749 56.7336 11.7159 56.8844 12.0204C57.0477 12.3248 57.1293 12.6673 57.1293 13.0479C57.1293 13.4284 57.0477 13.7709 56.8844 14.0753C56.7336 14.3671 56.5076 14.6017 56.2062 14.7793Z" fill="#524D48"/>
<path fill-rule="evenodd" clip-rule="evenodd" d="M65.9084 18.1282C64.9662 18.1282 64.1119 17.9189 63.3462 17.5003C62.5923 17.069 61.9959 16.4855 61.5563 15.7497C61.1167 15.014 60.8969 14.1895 60.8969 13.2761C60.8969 12.3628 61.1167 11.5447 61.5563 10.8216C61.9959 10.0985 62.5923 9.5277 63.3462 9.10914C64.0995 8.6778 64.9537 8.46216 65.9084 8.46216C66.8624 8.46216 67.7167 8.6715 68.47 9.09006C69.2238 9.50868 69.8202 10.0859 70.2599 10.8216C70.6995 11.5447 70.9193 12.3628 70.9193 13.2761C70.9193 14.1895 70.6995 15.014 70.2599 15.7497C69.8202 16.4855 69.2238 17.069 68.47 17.5003C67.7167 17.9189 66.8624 18.1282 65.9084 18.1282ZM65.9084 15.4834C66.3224 15.4834 66.6866 15.3946 67.0008 15.217C67.3145 15.0267 67.5533 14.7667 67.7167 14.4368C67.8925 14.0944 67.9804 13.7074 67.9804 13.2761C67.9804 12.8449 67.8925 12.4706 67.7167 12.1535C67.5408 11.8237 67.2961 11.57 66.9818 11.3924C66.6806 11.2021 66.3224 11.107 65.9084 11.107C65.5062 11.107 65.148 11.2021 64.8343 11.3924C64.52 11.57 64.2753 11.8237 64.0995 12.1535C63.9236 12.4834 63.8357 12.8639 63.8357 13.2952C63.8357 13.7138 63.9236 14.0944 64.0995 14.4368C64.2753 14.7667 64.52 15.0267 64.8343 15.217C65.148 15.3946 65.5062 15.4834 65.9084 15.4834Z" fill="#524D48"/>
<path fill-rule="evenodd" clip-rule="evenodd" d="M81.7876 18.1092C81.1727 18.1092 80.6072 17.9887 80.0921 17.7477C79.8212 17.6208 79.5765 17.4694 79.3579 17.2933V21.8196H76.5129V8.67152H79.3953V9.30974C79.6044 9.137 79.8367 8.98766 80.0921 8.86178C80.6072 8.60804 81.1727 8.4812 81.7876 8.4812C82.6543 8.4812 83.4206 8.69054 84.086 9.10916C84.7644 9.52772 85.2919 10.0986 85.6686 10.8216C86.0583 11.5447 86.2525 12.3692 86.2525 13.2952C86.2525 14.2212 86.0583 15.0457 85.6686 15.7688C85.2919 16.4919 84.7644 17.0626 84.086 17.4813C83.4206 17.8999 82.6543 18.1092 81.7876 18.1092ZM81.2606 15.4834C81.6747 15.4834 82.0329 15.3882 82.3341 15.198C82.6484 15.0077 82.8931 14.7476 83.069 14.4178C83.2448 14.088 83.3327 13.7138 83.3327 13.2952C83.3327 12.8639 83.2448 12.4834 83.069 12.1536C82.8931 11.8237 82.6484 11.5701 82.3341 11.3925C82.0329 11.2021 81.6812 11.107 81.2791 11.107C80.8775 11.107 80.5192 11.2021 80.2056 11.3925C79.9038 11.5701 79.6656 11.8237 79.4897 12.1536C79.3139 12.4834 79.226 12.8639 79.226 13.2952C79.226 13.7138 79.3074 14.088 79.4707 14.4178C79.6466 14.7476 79.8913 15.0077 80.2056 15.198C80.5192 15.3882 80.8709 15.4834 81.2606 15.4834Z" fill="#524D48"/>
<path d="M89.0737 17.9379C89.6012 18.0775 90.1347 18.1472 90.6747 18.1472C91.8177 18.1472 92.7218 17.8808 93.3878 17.348C94.0656 16.8153 94.4048 16.0986 94.4048 15.1979C94.4048 14.6144 94.2985 14.1451 94.0846 13.7899C93.8713 13.4221 93.5951 13.1303 93.2559 12.9146C92.9167 12.699 92.5585 12.5277 92.1818 12.4009C91.8052 12.274 91.447 12.1662 91.1084 12.0774C90.7692 11.9886 90.4929 11.8871 90.2791 11.7729C90.0658 11.6588 89.9589 11.5066 89.9589 11.3163C89.9589 11.1387 90.0408 11.0055 90.2036 10.9167C90.367 10.8152 90.6117 10.7645 90.9385 10.7645C91.2777 10.7645 91.6228 10.8343 91.9745 10.9738C92.3387 11.1133 92.6654 11.3544 92.9541 11.6969L94.5931 10.0225C94.1791 9.48965 93.6391 9.09005 92.9731 8.82371C92.3202 8.54465 91.6044 8.40509 90.8256 8.40509C90.0848 8.40509 89.4379 8.53193 88.8854 8.78561C88.3323 9.03935 87.9052 9.38819 87.604 9.83213C87.3028 10.2634 87.1519 10.7772 87.1519 11.3734C87.1519 11.9315 87.2589 12.3946 87.4721 12.7624C87.6854 13.1176 87.9622 13.3967 88.3008 13.5996C88.64 13.8026 88.9983 13.9612 89.3749 14.0753C89.7515 14.1895 90.1097 14.2973 90.449 14.3988C90.7876 14.4876 91.0644 14.5954 91.2777 14.7223C91.504 14.8364 91.6169 15.0077 91.6169 15.236C91.6169 15.4136 91.5224 15.5531 91.3341 15.6546C91.1583 15.7561 90.901 15.8068 90.5618 15.8068C90.0717 15.8068 89.6197 15.718 89.2056 15.5404C88.7909 15.3502 88.4327 15.0901 88.1315 14.7603L86.4925 16.4347C86.8068 16.7772 87.1834 17.0817 87.623 17.348C88.0751 17.6017 88.5587 17.7983 89.0737 17.9379Z" fill="#524D48"/>
<path d="M99.661 18.1282C98.8198 18.1282 98.0725 17.9569 97.4196 17.6144C96.7787 17.2592 96.2767 16.7772 95.9125 16.1683C95.5478 15.5468 95.366 14.8364 95.366 14.0372V8.67151H98.2484V13.9992C98.2484 14.3163 98.2983 14.5891 98.3993 14.8174C98.5121 15.0457 98.6755 15.2233 98.8888 15.3502C99.1026 15.477 99.3598 15.5404 99.661 15.5404C100.088 15.5404 100.427 15.4072 100.679 15.1408C100.93 14.8618 101.055 14.4812 101.055 13.9992V8.67151H103.938V14.0182C103.938 14.8301 103.756 15.5468 103.391 16.1683C103.027 16.7772 102.525 17.2592 101.884 17.6144C101.244 17.9569 100.503 18.1282 99.661 18.1282Z" fill="#524D48"/>
<path d="M108.253 8.67152H105.371V17.9189H108.253V12.5151C108.253 12.198 108.316 11.9316 108.441 11.7159C108.58 11.5003 108.762 11.3353 108.988 11.2212C109.214 11.0943 109.471 11.0309 109.76 11.0309C110.175 11.0309 110.52 11.1641 110.796 11.4305C111.085 11.6842 111.23 12.0457 111.23 12.5151V17.9189H114.112V12.5151C114.112 12.198 114.175 11.9316 114.3 11.7159C114.439 11.5003 114.621 11.3353 114.847 11.2212C115.073 11.0943 115.331 11.0309 115.619 11.0309C116.034 11.0309 116.379 11.1641 116.655 11.4305C116.944 11.6842 117.088 12.0457 117.088 12.5151V17.9189H119.971V12.1916C119.971 11.4178 119.808 10.7582 119.481 10.2127C119.167 9.65456 118.734 9.22964 118.181 8.93792C117.641 8.63342 117.019 8.4812 116.316 8.4812C115.6 8.4812 114.953 8.63978 114.376 8.95694C114 9.15896 113.673 9.41972 113.392 9.73916C113.13 9.40502 112.811 9.1316 112.435 8.91884C111.933 8.62712 111.362 8.4812 110.721 8.4812C110.043 8.4812 109.434 8.62712 108.894 8.91884C108.659 9.04022 108.445 9.1856 108.253 9.35498V8.67152Z" fill="#524D48"/>
</g>
<defs>
<clipPath id="clip0_81_1002">
<rect width="120" height="24" fill="white" transform="translate(0.234497)"/>
</clipPath>
</defs>
</svg>
